<svg width="150" height="100" viewBox="0 0 150 100" fill="none" xmlns="http://www.w3.org/2000/svg">
<rect width="150" height="100" rx="20" fill="#DAD8D8"/>
<path d="M27.0234 41.8438C26.3906 42.6016 25.4961 43.1914 24.3398 43.6133C23.1836 44.0273 21.9023 44.2344 20.4961 44.2344C19.0195 44.2344 17.7227 43.9141 16.6055 43.2734C15.4961 42.625 14.6367 41.6875 14.0273 40.4609C13.4258 39.2344 13.1172 37.793 13.1016 36.1367V34.9766C13.1016 33.2734 13.3867 31.8008 13.957 30.5586C14.5352 29.3086 15.3633 28.3555 16.4414 27.6992C17.5273 27.0352 18.7969 26.7031 20.25 26.7031C22.2734 26.7031 23.8555 27.1875 24.9961 28.1562C26.1367 29.1172 26.8125 30.5195 27.0234 32.3633H23.6016C23.4453 31.3867 23.0977 30.6719 22.5586 30.2188C22.0273 29.7656 21.293 29.5391 20.3555 29.5391C19.1602 29.5391 18.25 29.9883 17.625 30.8867C17 31.7852 16.6836 33.1211 16.6758 34.8945V35.9844C16.6758 37.7734 17.0156 39.125 17.6953 40.0391C18.375 40.9531 19.3711 41.4102 20.6836 41.4102C22.0039 41.4102 22.9453 41.1289 23.5078 40.5664V37.625H20.3086V35.0352H27.0234V41.8438ZM43.8984 35.8555C43.8984 37.5352 43.6016 39.0078 43.0078 40.2734C42.4141 41.5391 41.5625 42.5156 40.4531 43.2031C39.3516 43.8906 38.0859 44.2344 36.6562 44.2344C35.2422 44.2344 33.9805 43.8945 32.8711 43.2148C31.7617 42.5352 30.9023 41.5664 30.293 40.3086C29.6836 39.043 29.375 37.5898 29.3672 35.9492V35.1055C29.3672 33.4258 29.668 31.9492 30.2695 30.6758C30.8789 29.3945 31.7344 28.4141 32.8359 27.7344C33.9453 27.0469 35.2109 26.7031 36.6328 26.7031C38.0547 26.7031 39.3164 27.0469 40.418 27.7344C41.5273 28.4141 42.3828 29.3945 42.9844 30.6758C43.5938 31.9492 43.8984 33.4219 43.8984 35.0938V35.8555ZM40.3359 35.082C40.3359 33.293 40.0156 31.9336 39.375 31.0039C38.7344 30.0742 37.8203 29.6094 36.6328 29.6094C35.4531 29.6094 34.543 30.0703 33.9023 30.9922C33.2617 31.9062 32.9375 33.25 32.9297 35.0234V35.8555C32.9297 37.5977 33.25 38.9492 33.8906 39.9102C34.5312 40.8711 35.4531 41.3516 36.6562 41.3516C37.8359 41.3516 38.7422 40.8906 39.375 39.9688C40.0078 39.0391 40.3281 37.6875 40.3359 35.9141V35.082ZM60.4688 35.8555C60.4688 37.5352 60.1719 39.0078 59.5781 40.2734C58.9844 41.5391 58.1328 42.5156 57.0234 43.2031C55.9219 43.8906 54.6562 44.2344 53.2266 44.2344C51.8125 44.2344 50.5508 43.8945 49.4414 43.2148C48.332 42.5352 47.4727 41.5664 46.8633 40.3086C46.2539 39.043 45.9453 37.5898 45.9375 35.9492V35.1055C45.9375 33.4258 46.2383 31.9492 46.8398 30.6758C47.4492 29.3945 48.3047 28.4141 49.4062 27.7344C50.5156 27.0469 51.7812 26.7031 53.2031 26.7031C54.625 26.7031 55.8867 27.0469 56.9883 27.7344C58.0977 28.4141 58.9531 29.3945 59.5547 30.6758C60.1641 31.9492 60.4688 33.4219 60.4688 35.0938V35.8555ZM56.9062 35.082C56.9062 33.293 56.5859 31.9336 55.9453 31.0039C55.3047 30.0742 54.3906 29.6094 53.2031 29.6094C52.0234 29.6094 51.1133 30.0703 50.4727 30.9922C49.832 31.9062 49.5078 33.25 49.5 35.0234V35.8555C49.5 37.5977 49.8203 38.9492 50.4609 39.9102C51.1016 40.8711 52.0234 41.3516 53.2266 41.3516C54.4062 41.3516 55.3125 40.8906 55.9453 39.9688C56.5781 39.0391 56.8984 37.6875 56.9062 35.9141V35.082ZM76.5234 41.8438C75.8906 42.6016 74.9961 43.1914 73.8398 43.6133C72.6836 44.0273 71.4023 44.2344 69.9961 44.2344C68.5195 44.2344 67.2227 43.9141 66.1055 43.2734C64.9961 42.625 64.1367 41.6875 63.5273 40.4609C62.9258 39.2344 62.6172 37.793 62.6016 36.1367V34.9766C62.6016 33.2734 62.8867 31.8008 63.457 30.5586C64.0352 29.3086 64.8633 28.3555 65.9414 27.6992C67.0273 27.0352 68.2969 26.7031 69.75 26.7031C71.7734 26.7031 73.3555 27.1875 74.4961 28.1562C75.6367 29.1172 76.3125 30.5195 76.5234 32.3633H73.1016C72.9453 31.3867 72.5977 30.6719 72.0586 30.2188C71.5273 29.7656 70.793 29.5391 69.8555 29.5391C68.6602 29.5391 67.75 29.9883 67.125 30.8867C66.5 31.7852 66.1836 33.1211 66.1758 34.8945V35.9844C66.1758 37.7734 66.5156 39.125 67.1953 40.0391C67.875 40.9531 68.8711 41.4102 70.1836 41.4102C71.5039 41.4102 72.4453 41.1289 73.0078 40.5664V37.625H69.8086V35.0352H76.5234V41.8438ZM82.8984 41.1758H90.3633V44H79.3828V26.9375H82.8984V41.1758ZM102.656 36.6055H95.9062V41.1758H103.828V44H92.3906V26.9375H103.805V29.7852H95.9062V33.8516H102.656V36.6055ZM23.1562 68.4844H16.9922L15.8203 72H12.082L18.4336 54.9375H21.6914L28.0781 72H24.3398L23.1562 68.4844ZM17.9414 65.6367H22.207L20.0625 59.25L17.9414 65.6367ZM43.5469 72H40.0312L33.1875 60.7734V72H29.6719V54.9375H33.1875L40.043 66.1875V54.9375H43.5469V72ZM56.4609 68.4844H50.2969L49.125 72H45.3867L51.7383 54.9375H54.9961L61.3828 72H57.6445L56.4609 68.4844ZM51.2461 65.6367H55.5117L53.3672 59.25L51.2461 65.6367ZM66.4922 69.1758H73.957V72H62.9766V54.9375H66.4922V69.1758ZM78.5859 62.625L82.1367 54.9375H85.9805L80.3789 65.8125V72H76.8047V65.8125L71.2031 54.9375H75.0586L78.5859 62.625ZM100.594 57.7852H95.3672V72H91.8516V57.7852H86.6953V54.9375H100.594V57.7852ZM106.348 72H102.832V54.9375H106.348V72ZM123.012 66.3164C122.879 68.1523 122.199 69.5977 120.973 70.6523C119.754 71.707 118.145 72.2344 116.145 72.2344C113.957 72.2344 112.234 71.5 110.977 70.0312C109.727 68.5547 109.102 66.5312 109.102 63.9609V62.918C109.102 61.2773 109.391 59.832 109.969 58.582C110.547 57.332 111.371 56.375 112.441 55.7109C113.52 55.0391 114.77 54.7031 116.191 54.7031C118.16 54.7031 119.746 55.2305 120.949 56.2852C122.152 57.3398 122.848 58.8203 123.035 60.7266H119.52C119.434 59.625 119.125 58.8281 118.594 58.3359C118.07 57.8359 117.27 57.5859 116.191 57.5859C115.02 57.5859 114.141 58.0078 113.555 58.8516C112.977 59.6875 112.68 60.9883 112.664 62.7539V64.043C112.664 65.8867 112.941 67.2344 113.496 68.0859C114.059 68.9375 114.941 69.3633 116.145 69.3633C117.23 69.3633 118.039 69.1172 118.57 68.625C119.109 68.125 119.418 67.3555 119.496 66.3164H123.012ZM134.168 67.5234C134.168 66.8594 133.934 66.3516 133.465 66C132.996 65.6406 132.152 65.2656 130.934 64.875C129.715 64.4766 128.75 64.0859 128.039 63.7031C126.102 62.6562 125.133 61.2461 125.133 59.4727C125.133 58.5508 125.391 57.7305 125.906 57.0117C126.43 56.2852 127.176 55.7188 128.145 55.3125C129.121 54.9062 130.215 54.7031 131.426 54.7031C132.645 54.7031 133.73 54.9258 134.684 55.3711C135.637 55.8086 136.375 56.4297 136.898 57.2344C137.43 58.0391 137.695 58.9531 137.695 59.9766H134.18C134.18 59.1953 133.934 58.5898 133.441 58.1602C132.949 57.7227 132.258 57.5039 131.367 57.5039C130.508 57.5039 129.84 57.6875 129.363 58.0547C128.887 58.4141 128.648 58.8906 128.648 59.4844C128.648 60.0391 128.926 60.5039 129.48 60.8789C130.043 61.2539 130.867 61.6055 131.953 61.9336C133.953 62.5352 135.41 63.2812 136.324 64.1719C137.238 65.0625 137.695 66.1719 137.695 67.5C137.695 68.9766 137.137 70.1367 136.02 70.9805C134.902 71.8164 133.398 72.2344 131.508 72.2344C130.195 72.2344 129 71.9961 127.922 71.5195C126.844 71.0352 126.02 70.375 125.449 69.5391C124.887 68.7031 124.605 67.7344 124.605 66.6328H128.133C128.133 68.5156 129.258 69.457 131.508 69.457C132.344 69.457 132.996 69.2891 133.465 68.9531C133.934 68.6094 134.168 68.1328 134.168 67.5234Z" fill="white"/>
</svg>
