<svg width="466" height="268" viewBox="0 0 466 268" fill="none" xmlns="http://www.w3.org/2000/svg">
<path d="M442 0H24C10.7452 0 0 10.7452 0 24V244C0 257.255 10.7452 268 24 268H442C455.255 268 466 257.255 466 244V24C466 10.7452 455.255 0 442 0Z" fill="#2931C2"/>
<mask id="mask0_0:3" style="mask-type:alpha" maskUnits="userSpaceOnUse" x="0" y="0" width="466" height="268">
<path d="M442 0H24C10.7452 0 0 10.7452 0 24V244C0 257.255 10.7452 268 24 268H442C455.255 268 466 257.255 466 244V24C466 10.7452 455.255 0 442 0Z" fill="#16194F"/>
</mask>
<g mask="url(#mask0_0:3)">
<path d="M360.56 -55.2031C383.194 -77.7577 419.806 -77.7577 442.44 -55.2031L456.03 -41.6613C465.288 -32.4358 477.39 -26.6076 490.375 -25.1215L509.435 -22.94C541.181 -19.3067 564.009 9.31823 560.487 41.0767L558.372 60.1446C556.932 73.1347 559.921 86.2305 566.855 97.3091L577.033 113.571C593.986 140.656 585.839 176.351 558.813 193.399L542.587 203.634C531.533 210.607 523.158 221.109 518.819 233.438L512.451 251.535C501.845 281.676 468.858 297.562 438.679 287.062L420.56 280.757C408.216 276.462 394.784 276.462 382.44 280.757L364.32 287.062C334.142 297.562 301.155 281.676 290.549 251.535L284.181 233.438C279.842 221.109 271.467 210.607 260.413 203.634L244.187 193.399C217.161 176.351 209.014 140.657 225.967 113.571L236.145 97.3092C243.079 86.2305 246.068 73.1347 244.628 60.1446L242.513 41.0767C238.991 9.31828 261.819 -19.3067 293.565 -22.94L312.625 -25.1215C325.61 -26.6076 337.712 -32.4358 346.97 -41.6612L360.56 -55.2031Z" fill="#9A94FF"/>
<path d="M124.56 -161.203C147.194 -183.758 183.806 -183.758 206.44 -161.203L220.03 -147.661C229.288 -138.436 241.39 -132.608 254.375 -131.121L273.435 -128.94C305.181 -125.307 328.009 -96.6817 324.487 -64.9233L322.372 -45.8554C320.932 -32.8653 323.921 -19.7695 330.855 -8.69087L341.033 7.57123C357.986 34.6565 349.839 70.3513 322.813 87.3988L306.587 97.6342C295.533 104.607 287.158 115.109 282.819 127.438L276.451 145.535C265.845 175.676 232.858 191.562 202.679 181.062L184.56 174.757C172.216 170.462 158.784 170.462 146.44 174.757L128.32 181.062C98.142 191.562 65.1551 175.676 54.5488 145.535L48.1807 127.438C43.8424 115.109 35.4673 104.607 24.4131 97.6342L8.1868 87.3988C-18.8388 70.3513 -26.9859 34.6565 -10.0333 7.57126L0.14509 -8.69086C7.07918 -19.7695 10.0683 -32.8653 8.62767 -45.8554L6.51309 -64.9233C2.99117 -96.6817 25.8188 -125.307 57.5647 -128.94L76.6251 -131.121C89.6101 -132.608 101.712 -138.436 110.97 -147.661L124.56 -161.203Z" fill="#CAC7FF"/>
<path d="M136.559 115.777C162.51 89.9161 204.49 89.9161 230.441 115.777L246.022 131.303C256.637 141.881 270.513 148.563 285.401 150.267L307.256 152.769C343.655 156.934 369.828 189.755 365.79 226.168L363.365 248.031C361.714 262.925 365.141 277.94 373.091 290.643L384.762 309.289C404.199 340.344 394.858 381.27 363.871 400.817L345.266 412.552C332.592 420.547 322.989 432.589 318.015 446.724L310.714 467.474C298.553 502.033 260.731 520.247 226.129 508.208L205.354 500.979C191.201 496.054 175.799 496.054 161.646 500.979L140.871 508.208C106.269 520.247 68.4474 502.033 56.2865 467.474L48.985 446.724C44.0108 432.589 34.4082 420.547 21.7337 412.552L3.12905 400.817C-27.8577 381.27 -37.199 340.344 -17.7616 309.289L-6.0913 290.643C1.85912 277.94 5.28628 262.925 3.63456 248.031L1.21005 226.168C-2.82808 189.755 23.3455 156.934 59.7444 152.769L81.5985 150.267C96.4867 148.563 110.363 141.881 120.978 131.303L136.559 115.777Z" fill="#2931C2"/>
<mask id="mask1_0:3" style="mask-type:alpha" maskUnits="userSpaceOnUse" x="-19" y="-179" width="369" height="364">
<path d="M124.56 -161.203C147.194 -183.758 183.806 -183.758 206.44 -161.203L220.03 -147.661C229.288 -138.436 241.39 -132.608 254.375 -131.121L273.435 -128.94C305.181 -125.307 328.009 -96.6817 324.487 -64.9233L322.372 -45.8554C320.932 -32.8653 323.921 -19.7695 330.855 -8.69087L341.033 7.57123C357.986 34.6565 349.839 70.3513 322.813 87.3988L306.587 97.6342C295.533 104.607 287.158 115.109 282.819 127.438L276.451 145.535C265.845 175.676 232.858 191.562 202.679 181.062L184.56 174.757C172.216 170.462 158.784 170.462 146.44 174.757L128.32 181.062C98.142 191.562 65.1551 175.676 54.5488 145.535L48.1807 127.438C43.8424 115.109 35.4673 104.607 24.4131 97.6342L8.1868 87.3988C-18.8388 70.3513 -26.9859 34.6565 -10.0333 7.57126L0.14509 -8.69086C7.07918 -19.7695 10.0683 -32.8653 8.62767 -45.8554L6.51309 -64.9233C2.99117 -96.6817 25.8188 -125.307 57.5647 -128.94L76.6251 -131.121C89.6101 -132.608 101.712 -138.436 110.97 -147.661L124.56 -161.203Z" fill="#CAC7FF"/>
</mask>
<g mask="url(#mask1_0:3)">
<path d="M136.559 115.777C162.51 89.9161 204.49 89.9161 230.441 115.777L246.022 131.303C256.637 141.881 270.513 148.563 285.401 150.267L307.256 152.769C343.655 156.934 369.828 189.755 365.79 226.168L363.365 248.031C361.714 262.925 365.141 277.94 373.091 290.643L384.762 309.289C404.199 340.344 394.858 381.27 363.871 400.817L345.266 412.552C332.592 420.547 322.989 432.589 318.015 446.724L310.714 467.474C298.553 502.033 260.731 520.247 226.129 508.208L205.354 500.979C191.201 496.054 175.799 496.054 161.646 500.979L140.871 508.208C106.269 520.247 68.4474 502.033 56.2865 467.474L48.985 446.724C44.0108 432.589 34.4082 420.547 21.7337 412.552L3.12905 400.817C-27.8577 381.27 -37.199 340.344 -17.7616 309.289L-6.0913 290.643C1.85912 277.94 5.28628 262.925 3.63456 248.031L1.21005 226.168C-2.82808 189.755 23.3455 156.934 59.7444 152.769L81.5985 150.267C96.4867 148.563 110.363 141.881 120.978 131.303L136.559 115.777Z" fill="#F44E77"/>
</g>
<g filter="url(#filter0_d_0:3)">
<path d="M43.8535 196V68.0312H85.6895C99.5762 68.0312 110.006 70.9023 116.979 76.6445C124.01 82.3867 127.525 90.8828 127.525 102.133C127.525 108.109 125.826 113.412 122.428 118.041C119.029 122.611 114.4 126.156 108.541 128.676C115.455 130.609 120.904 134.301 124.889 139.75C128.932 145.141 130.953 151.586 130.953 159.086C130.953 170.57 127.232 179.594 119.791 186.156C112.35 192.719 101.832 196 88.2383 196H43.8535ZM60.7285 136.146V182.201H88.5898C96.4414 182.201 102.623 180.18 107.135 176.137C111.705 172.035 113.99 166.41 113.99 159.262C113.99 143.852 105.611 136.146 88.8535 136.146H60.7285ZM60.7285 122.611H86.2168C93.5996 122.611 99.4883 120.766 103.883 117.074C108.336 113.383 110.562 108.373 110.562 102.045C110.562 95.0137 108.512 89.916 104.41 86.752C100.309 83.5293 94.0684 81.918 85.6895 81.918H60.7285V122.611ZM174.107 196H157.232V68.0312H174.107V196ZM299.527 179.213C295.191 185.424 289.127 190.082 281.334 193.188C273.6 196.234 264.576 197.758 254.264 197.758C243.834 197.758 234.576 195.326 226.49 190.463C218.404 185.541 212.135 178.568 207.682 169.545C203.287 160.521 201.031 150.062 200.914 138.168V127.006C200.914 107.729 205.396 92.7871 214.361 82.1816C223.385 71.5762 236.041 66.2734 252.33 66.2734C265.689 66.2734 276.441 69.7012 284.586 76.5566C292.73 83.3535 297.711 93.0215 299.527 105.561H282.652C279.488 88.627 269.41 80.1602 252.418 80.1602C241.109 80.1602 232.525 84.1445 226.666 92.1133C220.865 100.023 217.936 111.508 217.877 126.566V137.025C217.877 151.381 221.158 162.807 227.721 171.303C234.283 179.74 243.16 183.959 254.352 183.959C260.68 183.959 266.217 183.256 270.963 181.85C275.709 180.443 279.635 178.07 282.74 174.73V145.99H253.121V132.279H299.527V179.213ZM426.178 136.146C426.178 148.686 424.068 159.643 419.85 169.018C415.631 178.334 409.654 185.453 401.92 190.375C394.186 195.297 385.162 197.758 374.85 197.758C364.771 197.758 355.836 195.297 348.043 190.375C340.25 185.395 334.186 178.334 329.85 169.193C325.572 159.994 323.375 149.359 323.258 137.289V128.061C323.258 115.756 325.396 104.887 329.674 95.4531C333.951 86.0195 339.986 78.8125 347.779 73.832C355.631 68.793 364.596 66.2734 374.674 66.2734C384.928 66.2734 393.951 68.7637 401.744 73.7441C409.596 78.666 415.631 85.8438 419.85 95.2773C424.068 104.652 426.178 115.58 426.178 128.061V136.146ZM409.391 127.885C409.391 112.709 406.344 101.078 400.25 92.9922C394.156 84.8477 385.631 80.7754 374.674 80.7754C364.01 80.7754 355.602 84.8477 349.449 92.9922C343.355 101.078 340.221 112.328 340.045 126.742V136.146C340.045 150.854 343.121 162.426 349.273 170.863C355.484 179.242 364.01 183.432 374.85 183.432C385.748 183.432 394.186 179.477 400.162 171.566C406.139 163.598 409.215 152.201 409.391 137.377V127.885Z" fill="#EEB5CA"/>
</g>
</g>
<defs>
<filter id="filter0_d_0:3" x="39.8535" y="66.2734" width="390.324" height="139.484" filterUnits="userSpaceOnUse" color-interpolation-filters="sRGB">
<feFlood flood-opacity="0" result="BackgroundImageFix"/>
<feColorMatrix in="SourceAlpha" type="matrix" values="0 0 0 0 0 0 0 0 0 0 0 0 0 0 0 0 0 0 127 0" result="hardAlpha"/>
<feOffset dy="4"/>
<feGaussianBlur stdDeviation="2"/>
<feComposite in2="hardAlpha" operator="out"/>
<feColorMatrix type="matrix" values="0 0 0 0 0 0 0 0 0 0 0 0 0 0 0 0 0 0 0.25 0"/>
<feBlend mode="normal" in2="BackgroundImageFix" result="effect1_dropShadow_0:3"/>
<feBlend mode="normal" in="SourceGraphic" in2="effect1_dropShadow_0:3" result="shape"/>
</filter>
</defs>
</svg>
