<svg width="150" height="100" viewBox="0 0 150 100" fill="none" xmlns="http://www.w3.org/2000/svg">
<rect width="150" height="100" rx="20" fill="#DAD8D8"/>
<path d="M54.7812 56.8438C54.4271 61.7396 52.6146 65.5938 49.3438 68.4062C46.0938 71.2188 41.8021 72.625 36.4688 72.625C30.6354 72.625 26.0417 70.6667 22.6875 66.75C19.3542 62.8125 17.6875 57.4167 17.6875 50.5625V47.7812C17.6875 43.4062 18.4583 39.5521 20 36.2188C21.5417 32.8854 23.7396 30.3333 26.5938 28.5625C29.4688 26.7708 32.8021 25.875 36.5938 25.875C41.8438 25.875 46.0729 27.2812 49.2812 30.0938C52.4896 32.9062 54.3438 36.8542 54.8438 41.9375H45.4688C45.2396 39 44.4167 36.875 43 35.5625C41.6042 34.2292 39.4688 33.5625 36.5938 33.5625C33.4688 33.5625 31.125 34.6875 29.5625 36.9375C28.0208 39.1667 27.2292 42.6354 27.1875 47.3438V50.7812C27.1875 55.6979 27.9271 59.2917 29.4062 61.5625C30.9062 63.8333 33.2604 64.9688 36.4688 64.9688C39.3646 64.9688 41.5208 64.3125 42.9375 63C44.375 61.6667 45.1979 59.6146 45.4062 56.8438H54.7812ZM84.5312 60.0625C84.5312 58.2917 83.9062 56.9375 82.6562 56C81.4062 55.0417 79.1562 54.0417 75.9062 53C72.6562 51.9375 70.0833 50.8958 68.1875 49.875C63.0208 47.0833 60.4375 43.3229 60.4375 38.5938C60.4375 36.1354 61.125 33.9479 62.5 32.0312C63.8958 30.0938 65.8854 28.5833 68.4688 27.5C71.0729 26.4167 73.9896 25.875 77.2188 25.875C80.4688 25.875 83.3646 26.4688 85.9062 27.6562C88.4479 28.8229 90.4167 30.4792 91.8125 32.625C93.2292 34.7708 93.9375 37.2083 93.9375 39.9375H84.5625C84.5625 37.8542 83.9062 36.2396 82.5938 35.0938C81.2812 33.9271 79.4375 33.3438 77.0625 33.3438C74.7708 33.3438 72.9896 33.8333 71.7188 34.8125C70.4479 35.7708 69.8125 37.0417 69.8125 38.625C69.8125 40.1042 70.5521 41.3438 72.0312 42.3438C73.5312 43.3438 75.7292 44.2812 78.625 45.1562C83.9583 46.7604 87.8438 48.75 90.2812 51.125C92.7188 53.5 93.9375 56.4583 93.9375 60C93.9375 63.9375 92.4479 67.0312 89.4688 69.2812C86.4896 71.5104 82.4792 72.625 77.4375 72.625C73.9375 72.625 70.75 71.9896 67.875 70.7188C65 69.4271 62.8021 67.6667 61.2812 65.4375C59.7812 63.2083 59.0312 60.625 59.0312 57.6875H68.4375C68.4375 62.7083 71.4375 65.2188 77.4375 65.2188C79.6667 65.2188 81.4062 64.7708 82.6562 63.875C83.9062 62.9583 84.5312 61.6875 84.5312 60.0625ZM123.906 60.0625C123.906 58.2917 123.281 56.9375 122.031 56C120.781 55.0417 118.531 54.0417 115.281 53C112.031 51.9375 109.458 50.8958 107.562 49.875C102.396 47.0833 99.8125 43.3229 99.8125 38.5938C99.8125 36.1354 100.5 33.9479 101.875 32.0312C103.271 30.0938 105.26 28.5833 107.844 27.5C110.448 26.4167 113.365 25.875 116.594 25.875C119.844 25.875 122.74 26.4688 125.281 27.6562C127.823 28.8229 129.792 30.4792 131.188 32.625C132.604 34.7708 133.312 37.2083 133.312 39.9375H123.938C123.938 37.8542 123.281 36.2396 121.969 35.0938C120.656 33.9271 118.812 33.3438 116.438 33.3438C114.146 33.3438 112.365 33.8333 111.094 34.8125C109.823 35.7708 109.188 37.0417 109.188 38.625C109.188 40.1042 109.927 41.3438 111.406 42.3438C112.906 43.3438 115.104 44.2812 118 45.1562C123.333 46.7604 127.219 48.75 129.656 51.125C132.094 53.5 133.312 56.4583 133.312 60C133.312 63.9375 131.823 67.0312 128.844 69.2812C125.865 71.5104 121.854 72.625 116.812 72.625C113.312 72.625 110.125 71.9896 107.25 70.7188C104.375 69.4271 102.177 67.6667 100.656 65.4375C99.1562 63.2083 98.4062 60.625 98.4062 57.6875H107.812C107.812 62.7083 110.812 65.2188 116.812 65.2188C119.042 65.2188 120.781 64.7708 122.031 63.875C123.281 62.9583 123.906 61.6875 123.906 60.0625Z" fill="white"/>
</svg>
