<svg width="150" height="100" viewBox="0 0 150 100" fill="none" xmlns="http://www.w3.org/2000/svg">
<rect width="150" height="100" rx="20" fill="#DAD8D8"/>
<path d="M32.6484 52.3789H21.3984V64H15.5391V35.5625H34.0547V40.3086H21.3984V47.6523H32.6484V52.3789ZM43.6836 64H37.8242V35.5625H43.6836V64ZM71.6328 60.4062C70.5781 61.6693 69.0872 62.6523 67.1602 63.3555C65.2331 64.0456 63.0977 64.3906 60.7539 64.3906C58.293 64.3906 56.1315 63.8568 54.2695 62.7891C52.4206 61.7083 50.9883 60.1458 49.9727 58.1016C48.9701 56.0573 48.4557 53.6549 48.4297 50.8945V48.9609C48.4297 46.1224 48.9049 43.668 49.8555 41.5977C50.819 39.5143 52.1992 37.9258 53.9961 36.832C55.806 35.7253 57.9219 35.1719 60.3438 35.1719C63.7161 35.1719 66.3529 35.9792 68.2539 37.5938C70.1549 39.1953 71.2812 41.5326 71.6328 44.6055H65.9297C65.6693 42.9779 65.0898 41.7865 64.1914 41.0312C63.306 40.276 62.082 39.8984 60.5195 39.8984C58.5273 39.8984 57.0104 40.6471 55.9688 42.1445C54.9271 43.6419 54.3997 45.8685 54.3867 48.8242V50.6406C54.3867 53.6224 54.9531 55.875 56.0859 57.3984C57.2188 58.9219 58.8789 59.6836 61.0664 59.6836C63.2669 59.6836 64.8359 59.2148 65.7734 58.2773V53.375H60.4414V49.0586H71.6328V60.4062ZM84.0547 35.5625L91.3594 56.1875L98.625 35.5625H106.32V64H100.441V56.2266L101.027 42.8086L93.3516 64H89.3281L81.6719 42.8281L82.2578 56.2266V64H76.3984V35.5625H84.0547ZM127.844 58.1406H117.57L115.617 64H109.387L119.973 35.5625H125.402L136.047 64H129.816L127.844 58.1406ZM119.152 53.3945H126.262L122.688 42.75L119.152 53.3945Z" fill="white"/>
</svg>
