<svg width="150" height="100" viewBox="0 0 150 100" fill="none" xmlns="http://www.w3.org/2000/svg">
<rect width="150" height="100" rx="20" fill="#DAD8D8"/>
<path d="M65.0625 66.25C63.375 68.2708 60.9896 69.8438 57.9062 70.9688C54.8229 72.0729 51.4062 72.625 47.6562 72.625C43.7188 72.625 40.2604 71.7708 37.2812 70.0625C34.3229 68.3333 32.0312 65.8333 30.4062 62.5625C28.8021 59.2917 27.9792 55.4479 27.9375 51.0312V47.9375C27.9375 43.3958 28.6979 39.4688 30.2188 36.1562C31.7604 32.8229 33.9688 30.2812 36.8438 28.5312C39.7396 26.7604 43.125 25.875 47 25.875C52.3958 25.875 56.6146 27.1667 59.6562 29.75C62.6979 32.3125 64.5 36.0521 65.0625 40.9688H55.9375C55.5208 38.3646 54.5938 36.4583 53.1562 35.25C51.7396 34.0417 49.7812 33.4375 47.2812 33.4375C44.0938 33.4375 41.6667 34.6354 40 37.0312C38.3333 39.4271 37.4896 42.9896 37.4688 47.7188V50.625C37.4688 55.3958 38.375 59 40.1875 61.4375C42 63.875 44.6562 65.0938 48.1562 65.0938C51.6771 65.0938 54.1875 64.3438 55.6875 62.8438V55H47.1562V48.0938H65.0625V66.25ZM82.6562 72H73.2812V26.5H82.6562V72ZM124.688 34.0938H110.75V72H101.375V34.0938H87.625V26.5H124.688V34.0938Z" fill="white"/>
</svg>
