<svg width="150" height="100" viewBox="0 0 150 100" fill="none" xmlns="http://www.w3.org/2000/svg">
<rect width="150" height="100" rx="20" fill="#DAD8D8"/>
<path d="M33.5352 58.7656C32.5859 59.9023 31.2441 60.7871 29.5098 61.4199C27.7754 62.041 25.8535 62.3516 23.7441 62.3516C21.5293 62.3516 19.584 61.8711 17.9082 60.9102C16.2441 59.9375 14.9551 58.5312 14.041 56.6914C13.1387 54.8516 12.6758 52.6895 12.6523 50.2051V48.4648C12.6523 45.9102 13.0801 43.7012 13.9355 41.8379C14.8027 39.9629 16.0449 38.5332 17.6621 37.5488C19.291 36.5527 21.1953 36.0547 23.375 36.0547C26.4102 36.0547 28.7832 36.7812 30.4941 38.2344C32.2051 39.6758 33.2188 41.7793 33.5352 44.5449H28.4023C28.168 43.0801 27.6465 42.0078 26.8379 41.3281C26.041 40.6484 24.9395 40.3086 23.5332 40.3086C21.7402 40.3086 20.375 40.9824 19.4375 42.3301C18.5 43.6777 18.0254 45.6816 18.0137 48.3418V49.9766C18.0137 52.6602 18.5234 54.6875 19.543 56.0586C20.5625 57.4297 22.0566 58.1152 24.0254 58.1152C26.0059 58.1152 27.418 57.6934 28.2617 56.8496V52.4375H23.4629V48.5527H33.5352V58.7656ZM43.4316 62H38.1582V36.4062H43.4316V62ZM67.0742 40.6777H59.2344V62H53.9609V40.6777H46.2266V36.4062H67.0742V40.6777ZM90.9277 62H85.6543V51.0312H75.3711V62H70.0977V36.4062H75.3711V46.7773H85.6543V36.4062H90.9277V62ZM114.922 36.4062V53.2637C114.922 56.0645 114.043 58.2793 112.285 59.9082C110.539 61.5371 108.148 62.3516 105.113 62.3516C102.125 62.3516 99.752 61.5605 97.9941 59.9785C96.2363 58.3965 95.3398 56.2227 95.3047 53.457V36.4062H100.578V53.2988C100.578 54.9746 100.977 56.1992 101.773 56.9727C102.582 57.7344 103.695 58.1152 105.113 58.1152C108.078 58.1152 109.584 56.5566 109.631 53.4395V36.4062H114.922ZM119.246 62V36.4062H128.211C131.316 36.4062 133.672 37.0039 135.277 38.1992C136.883 39.3828 137.686 41.123 137.686 43.4199C137.686 44.6738 137.363 45.7812 136.719 46.7422C136.074 47.6914 135.178 48.3887 134.029 48.834C135.342 49.1621 136.373 49.8242 137.123 50.8203C137.885 51.8164 138.266 53.0352 138.266 54.4766C138.266 56.9375 137.48 58.8008 135.91 60.0664C134.34 61.332 132.102 61.9766 129.195 62H119.246ZM124.52 50.8555V57.7637H129.037C130.279 57.7637 131.246 57.4707 131.938 56.8848C132.641 56.2871 132.992 55.4668 132.992 54.4238C132.992 52.0801 131.779 50.8906 129.354 50.8555H124.52ZM124.52 47.1289H128.422C131.082 47.082 132.412 46.0215 132.412 43.9473C132.412 42.7871 132.072 41.9551 131.393 41.4512C130.725 40.9355 129.664 40.6777 128.211 40.6777H124.52V47.1289Z" fill="white"/>
</svg>
