<svg width="150" height="100" viewBox="0 0 150 100" fill="none" xmlns="http://www.w3.org/2000/svg">
<rect width="150" height="100" rx="20" fill="#DAD8D8"/>
<path d="M39.8203 66H32.7891V51.375H19.0781V66H12.0469V31.875H19.0781V45.7031H32.7891V31.875H39.8203V66ZM70.9688 37.5703H60.5156V66H53.4844V37.5703H43.1719V31.875H70.9688V37.5703ZM84.1875 31.875L92.9531 56.625L101.672 31.875H110.906V66H103.852V56.6719L104.555 40.5703L95.3438 66H90.5156L81.3281 40.5938L82.0312 56.6719V66H75V31.875H84.1875ZM124.078 60.3516H139.008V66H117.047V31.875H124.078V60.3516Z" fill="white"/>
</svg>
