<svg width="150" height="100" viewBox="0 0 150 100" fill="none" xmlns="http://www.w3.org/2000/svg">
<rect width="150" height="100" rx="20" fill="#DAD8D8"/>
<path d="M20.5029 39.6719H24.8975V54.4375C24.8975 55.7949 24.5947 56.9961 23.9893 58.041C23.3936 59.0762 22.5488 59.877 21.4551 60.4434C20.3613 61.0098 19.126 61.293 17.749 61.293C15.4932 61.293 13.7354 60.7217 12.4756 59.5791C11.2158 58.4268 10.5859 56.8008 10.5859 54.7012H15.0098C15.0098 55.7461 15.2295 56.5176 15.6689 57.0156C16.1084 57.5137 16.8018 57.7627 17.749 57.7627C18.5889 57.7627 19.2578 57.4746 19.7559 56.8984C20.2539 56.3223 20.5029 55.502 20.5029 54.4375V39.6719ZM46.1816 50.8193C46.1816 52.9189 45.8105 54.7598 45.0684 56.3418C44.3262 57.9238 43.2617 59.1445 41.875 60.0039C40.498 60.8633 38.916 61.293 37.1289 61.293C35.3613 61.293 33.7842 60.8682 32.3975 60.0186C31.0107 59.1689 29.9365 57.958 29.1748 56.3857C28.4131 54.8037 28.0273 52.9873 28.0176 50.9365V49.8818C28.0176 47.7822 28.3936 45.9365 29.1455 44.3447C29.9072 42.7432 30.9766 41.5176 32.3535 40.668C33.7402 39.8086 35.3223 39.3789 37.0996 39.3789C38.877 39.3789 40.4541 39.8086 41.8311 40.668C43.2178 41.5176 44.2871 42.7432 45.0391 44.3447C45.8008 45.9365 46.1816 47.7773 46.1816 49.8672V50.8193ZM41.7285 49.8525C41.7285 47.6162 41.3281 45.917 40.5273 44.7549C39.7266 43.5928 38.584 43.0117 37.0996 43.0117C35.625 43.0117 34.4873 43.5879 33.6865 44.7402C32.8857 45.8828 32.4805 47.5625 32.4707 49.7793V50.8193C32.4707 52.9971 32.8711 54.6865 33.6719 55.8877C34.4727 57.0889 35.625 57.6895 37.1289 57.6895C38.6035 57.6895 39.7363 57.1133 40.5273 55.9609C41.3184 54.7988 41.7188 53.1094 41.7285 50.8926V49.8525ZM66.8945 50.8193C66.8945 52.9189 66.5234 54.7598 65.7812 56.3418C65.0391 57.9238 63.9746 59.1445 62.5879 60.0039C61.2109 60.8633 59.6289 61.293 57.8418 61.293C56.0742 61.293 54.4971 60.8682 53.1104 60.0186C51.7236 59.1689 50.6494 57.958 49.8877 56.3857C49.126 54.8037 48.7402 52.9873 48.7305 50.9365V49.8818C48.7305 47.7822 49.1064 45.9365 49.8584 44.3447C50.6201 42.7432 51.6895 41.5176 53.0664 40.668C54.4531 39.8086 56.0352 39.3789 57.8125 39.3789C59.5898 39.3789 61.167 39.8086 62.5439 40.668C63.9307 41.5176 65 42.7432 65.752 44.3447C66.5137 45.9365 66.8945 47.7773 66.8945 49.8672V50.8193ZM62.4414 49.8525C62.4414 47.6162 62.041 45.917 61.2402 44.7549C60.4395 43.5928 59.2969 43.0117 57.8125 43.0117C56.3379 43.0117 55.2002 43.5879 54.3994 44.7402C53.5986 45.8828 53.1934 47.5625 53.1836 49.7793V50.8193C53.1836 52.9971 53.584 54.6865 54.3848 55.8877C55.1855 57.0889 56.3379 57.6895 57.8418 57.6895C59.3164 57.6895 60.4492 57.1133 61.2402 55.9609C62.0312 54.7988 62.4316 53.1094 62.4414 50.8926V49.8525ZM75.8301 39.6719L81.3086 55.1406L86.7578 39.6719H92.5293V61H88.1201V55.1699L88.5596 45.1064L82.8027 61H79.7852L74.043 45.1211L74.4824 55.1699V61H70.0879V39.6719H75.8301ZM100.762 57.4697H110.093V61H96.3672V39.6719H100.762V57.4697ZM124.961 56.6055H117.256L115.791 61H111.118L119.058 39.6719H123.13L131.113 61H126.44L124.961 56.6055ZM118.442 53.0459H123.774L121.094 45.0625L118.442 53.0459ZM137.134 54.4521H133.618L133.12 39.6719H137.632L137.134 54.4521ZM135.376 56.7666C136.089 56.7666 136.66 56.9766 137.09 57.3965C137.529 57.8164 137.749 58.3535 137.749 59.0078C137.749 59.6523 137.529 60.1846 137.09 60.6045C136.66 61.0244 136.089 61.2344 135.376 61.2344C134.673 61.2344 134.102 61.0244 133.662 60.6045C133.232 60.1846 133.018 59.6523 133.018 59.0078C133.018 58.3633 133.232 57.8311 133.662 57.4111C134.102 56.9814 134.673 56.7666 135.376 56.7666Z" fill="white"/>
</svg>
