<svg width="150" height="100" viewBox="0 0 150 100" fill="none" xmlns="http://www.w3.org/2000/svg">
<rect width="150" height="100" rx="20" fill="#DAD8D8"/>
<path d="M59.4062 26.5H68.7812V58C68.7812 60.8958 68.1354 63.4583 66.8438 65.6875C65.5729 67.8958 63.7708 69.6042 61.4375 70.8125C59.1042 72.0208 56.4688 72.625 53.5312 72.625C48.7188 72.625 44.9688 71.4062 42.2812 68.9688C39.5938 66.5104 38.25 63.0417 38.25 58.5625H47.6875C47.6875 60.7917 48.1562 62.4375 49.0938 63.5C50.0312 64.5625 51.5104 65.0938 53.5312 65.0938C55.3229 65.0938 56.75 64.4792 57.8125 63.25C58.875 62.0208 59.4062 60.2708 59.4062 58V26.5ZM100.406 60.0625C100.406 58.2917 99.7812 56.9375 98.5312 56C97.2812 55.0417 95.0312 54.0417 91.7812 53C88.5312 51.9375 85.9583 50.8958 84.0625 49.875C78.8958 47.0833 76.3125 43.3229 76.3125 38.5938C76.3125 36.1354 77 33.9479 78.375 32.0312C79.7708 30.0938 81.7604 28.5833 84.3438 27.5C86.9479 26.4167 89.8646 25.875 93.0938 25.875C96.3438 25.875 99.2396 26.4688 101.781 27.6562C104.323 28.8229 106.292 30.4792 107.688 32.625C109.104 34.7708 109.812 37.2083 109.812 39.9375H100.438C100.438 37.8542 99.7812 36.2396 98.4688 35.0938C97.1562 33.9271 95.3125 33.3438 92.9375 33.3438C90.6458 33.3438 88.8646 33.8333 87.5938 34.8125C86.3229 35.7708 85.6875 37.0417 85.6875 38.625C85.6875 40.1042 86.4271 41.3438 87.9062 42.3438C89.4062 43.3438 91.6042 44.2812 94.5 45.1562C99.8333 46.7604 103.719 48.75 106.156 51.125C108.594 53.5 109.812 56.4583 109.812 60C109.812 63.9375 108.323 67.0312 105.344 69.2812C102.365 71.5104 98.3542 72.625 93.3125 72.625C89.8125 72.625 86.625 71.9896 83.75 70.7188C80.875 69.4271 78.6771 67.6667 77.1562 65.4375C75.6562 63.2083 74.9062 60.625 74.9062 57.6875H84.3125C84.3125 62.7083 87.3125 65.2188 93.3125 65.2188C95.5417 65.2188 97.2812 64.7708 98.5312 63.875C99.7812 62.9583 100.406 61.6875 100.406 60.0625Z" fill="white"/>
</svg>
