<svg width="150" height="100" viewBox="0 0 150 100" fill="none" xmlns="http://www.w3.org/2000/svg">
<rect width="150" height="100" rx="20" fill="#DAD8D8"/>
<path d="M29.0781 60.3516H44.0078V66H22.0469V31.875H29.0781V60.3516ZM68.5938 51.2109H55.0938V60.3516H70.9375V66H48.0625V31.875H70.8906V37.5703H55.0938V45.7031H68.5938V51.2109ZM92.7578 57.0469C92.7578 55.7188 92.2891 54.7031 91.3516 54C90.4141 53.2812 88.7266 52.5312 86.2891 51.75C83.8516 50.9531 81.9219 50.1719 80.5 49.4062C76.625 47.3125 74.6875 44.4922 74.6875 40.9453C74.6875 39.1016 75.2031 37.4609 76.2344 36.0234C77.2812 34.5703 78.7734 33.4375 80.7109 32.625C82.6641 31.8125 84.8516 31.4062 87.2734 31.4062C89.7109 31.4062 91.8828 31.8516 93.7891 32.7422C95.6953 33.6172 97.1719 34.8594 98.2188 36.4688C99.2812 38.0781 99.8125 39.9062 99.8125 41.9531H92.7812C92.7812 40.3906 92.2891 39.1797 91.3047 38.3203C90.3203 37.4453 88.9375 37.0078 87.1562 37.0078C85.4375 37.0078 84.1016 37.375 83.1484 38.1094C82.1953 38.8281 81.7188 39.7812 81.7188 40.9688C81.7188 42.0781 82.2734 43.0078 83.3828 43.7578C84.5078 44.5078 86.1562 45.2109 88.3281 45.8672C92.3281 47.0703 95.2422 48.5625 97.0703 50.3438C98.8984 52.125 99.8125 54.3438 99.8125 57C99.8125 59.9531 98.6953 62.2734 96.4609 63.9609C94.2266 65.6328 91.2188 66.4688 87.4375 66.4688C84.8125 66.4688 82.4219 65.9922 80.2656 65.0391C78.1094 64.0703 76.4609 62.75 75.3203 61.0781C74.1953 59.4062 73.6328 57.4688 73.6328 55.2656H80.6875C80.6875 59.0312 82.9375 60.9141 87.4375 60.9141C89.1094 60.9141 90.4141 60.5781 91.3516 59.9062C92.2891 59.2188 92.7578 58.2656 92.7578 57.0469ZM122.289 57.0469C122.289 55.7188 121.82 54.7031 120.883 54C119.945 53.2812 118.258 52.5312 115.82 51.75C113.383 50.9531 111.453 50.1719 110.031 49.4062C106.156 47.3125 104.219 44.4922 104.219 40.9453C104.219 39.1016 104.734 37.4609 105.766 36.0234C106.812 34.5703 108.305 33.4375 110.242 32.625C112.195 31.8125 114.383 31.4062 116.805 31.4062C119.242 31.4062 121.414 31.8516 123.32 32.7422C125.227 33.6172 126.703 34.8594 127.75 36.4688C128.812 38.0781 129.344 39.9062 129.344 41.9531H122.312C122.312 40.3906 121.82 39.1797 120.836 38.3203C119.852 37.4453 118.469 37.0078 116.688 37.0078C114.969 37.0078 113.633 37.375 112.68 38.1094C111.727 38.8281 111.25 39.7812 111.25 40.9688C111.25 42.0781 111.805 43.0078 112.914 43.7578C114.039 44.5078 115.688 45.2109 117.859 45.8672C121.859 47.0703 124.773 48.5625 126.602 50.3438C128.43 52.125 129.344 54.3438 129.344 57C129.344 59.9531 128.227 62.2734 125.992 63.9609C123.758 65.6328 120.75 66.4688 116.969 66.4688C114.344 66.4688 111.953 65.9922 109.797 65.0391C107.641 64.0703 105.992 62.75 104.852 61.0781C103.727 59.4062 103.164 57.4688 103.164 55.2656H110.219C110.219 59.0312 112.469 60.9141 116.969 60.9141C118.641 60.9141 119.945 60.5781 120.883 59.9062C121.82 59.2188 122.289 58.2656 122.289 57.0469Z" fill="white"/>
</svg>
