<svg width="150" height="100" viewBox="0 0 150 100" fill="none" xmlns="http://www.w3.org/2000/svg">
<rect width="150" height="100" rx="20" fill="#DAD8D8"/>
<path d="M32.6465 39.6719L38.125 55.1406L43.5742 39.6719H49.3457V61H44.9365V55.1699L45.376 45.1064L39.6191 61H36.6016L30.8594 45.1211L31.2988 55.1699V61H26.9043V39.6719H32.6465ZM60.127 49.2812L64.5654 39.6719H69.3701L62.3682 53.2656V61H57.9004V53.2656L50.8984 39.6719H55.7178L60.127 49.2812ZM82.1436 55.4043C82.1436 54.5742 81.8506 53.9395 81.2646 53.5C80.6787 53.0508 79.624 52.582 78.1006 52.0938C76.5771 51.5957 75.3711 51.1074 74.4824 50.6289C72.0605 49.3203 70.8496 47.5576 70.8496 45.3408C70.8496 44.1885 71.1719 43.1631 71.8164 42.2646C72.4707 41.3564 73.4033 40.6484 74.6143 40.1406C75.835 39.6328 77.2021 39.3789 78.7158 39.3789C80.2393 39.3789 81.5967 39.6572 82.7881 40.2139C83.9795 40.7607 84.9023 41.5371 85.5566 42.543C86.2207 43.5488 86.5527 44.6914 86.5527 45.9707H82.1582C82.1582 44.9941 81.8506 44.2373 81.2354 43.7002C80.6201 43.1533 79.7559 42.8799 78.6426 42.8799C77.5684 42.8799 76.7334 43.1094 76.1377 43.5684C75.542 44.0176 75.2441 44.6133 75.2441 45.3555C75.2441 46.0488 75.5908 46.6299 76.2842 47.0986C76.9873 47.5674 78.0176 48.0068 79.375 48.417C81.875 49.1689 83.6963 50.1016 84.8389 51.2148C85.9814 52.3281 86.5527 53.7148 86.5527 55.375C86.5527 57.2207 85.8545 58.6709 84.458 59.7256C83.0615 60.7705 81.1816 61.293 78.8184 61.293C77.1777 61.293 75.6836 60.9951 74.3359 60.3994C72.9883 59.7939 71.958 58.9688 71.2451 57.9238C70.542 56.8789 70.1904 55.668 70.1904 54.291H74.5996C74.5996 56.6445 76.0059 57.8213 78.8184 57.8213C79.8633 57.8213 80.6787 57.6113 81.2646 57.1914C81.8506 56.7617 82.1436 56.166 82.1436 55.4043ZM107.031 50.8193C107.031 52.8115 106.709 54.5449 106.064 56.0195C105.42 57.4844 104.526 58.6611 103.384 59.5498L106.929 62.333L104.131 64.8086L99.5898 61.1611C99.0723 61.249 98.5352 61.293 97.9785 61.293C96.2109 61.293 94.6338 60.8682 93.2471 60.0186C91.8604 59.1689 90.7861 57.958 90.0244 56.3857C89.2627 54.8037 88.877 52.9873 88.8672 50.9365V49.8818C88.8672 47.7822 89.2432 45.9365 89.9951 44.3447C90.7568 42.7432 91.8262 41.5176 93.2031 40.668C94.5898 39.8086 96.1719 39.3789 97.9492 39.3789C99.7266 39.3789 101.304 39.8086 102.681 40.668C104.067 41.5176 105.137 42.7432 105.889 44.3447C106.65 45.9365 107.031 47.7773 107.031 49.8672V50.8193ZM102.578 49.8525C102.578 47.6162 102.178 45.917 101.377 44.7549C100.576 43.5928 99.4336 43.0117 97.9492 43.0117C96.4746 43.0117 95.3369 43.5879 94.5361 44.7402C93.7354 45.8828 93.3301 47.5625 93.3203 49.7793V50.8193C93.3203 52.9971 93.7207 54.6865 94.5215 55.8877C95.3223 57.0889 96.4746 57.6895 97.9785 57.6895C99.4531 57.6895 100.586 57.1133 101.377 55.9609C102.168 54.7988 102.568 53.1094 102.578 50.8926V49.8525ZM114.648 57.4697H123.979V61H110.254V39.6719H114.648V57.4697Z" fill="white"/>
</svg>
