<svg width="150" height="100" viewBox="0 0 150 100" fill="none" xmlns="http://www.w3.org/2000/svg">
<rect width="150" height="100" rx="20" fill="#DAD8D8"/>
<path d="M39.4482 54.728V66H32.8564V34.0078H45.3369C47.7393 34.0078 49.8486 34.4473 51.665 35.3262C53.4961 36.2051 54.9023 37.4575 55.8838 39.0835C56.8652 40.6948 57.356 42.5332 57.356 44.5986C57.356 47.7334 56.2793 50.209 54.126 52.0254C51.9873 53.8271 49.021 54.728 45.2271 54.728H39.4482ZM39.4482 49.3887H45.3369C47.0801 49.3887 48.4058 48.9785 49.314 48.1582C50.2368 47.3379 50.6982 46.166 50.6982 44.6426C50.6982 43.0752 50.2368 41.8081 49.314 40.8413C48.3911 39.8745 47.1167 39.3765 45.4907 39.3472H39.4482V49.3887ZM87.9419 66H81.3501V52.2891H68.4961V66H61.9043V34.0078H68.4961V46.9717H81.3501V34.0078H87.9419V66ZM100.312 54.728V66H93.7207V34.0078H106.201C108.604 34.0078 110.713 34.4473 112.529 35.3262C114.36 36.2051 115.767 37.4575 116.748 39.0835C117.729 40.6948 118.22 42.5332 118.22 44.5986C118.22 47.7334 117.144 50.209 114.99 52.0254C112.852 53.8271 109.885 54.728 106.091 54.728H100.312ZM100.312 49.3887H106.201C107.944 49.3887 109.27 48.9785 110.178 48.1582C111.101 47.3379 111.562 46.166 111.562 44.6426C111.562 43.0752 111.101 41.8081 110.178 40.8413C109.255 39.8745 107.981 39.3765 106.355 39.3472H100.312V49.3887Z" fill="white"/>
</svg>
