<svg width="150" height="100" viewBox="0 0 150 100" fill="none" xmlns="http://www.w3.org/2000/svg">
<rect width="150" height="100" rx="20" fill="#DAD8D8"/>
<path d="M9.03906 51.9883V58H5.52344V40.9375H12.1797C13.4609 40.9375 14.5859 41.1719 15.5547 41.6406C16.5312 42.1094 17.2812 42.7773 17.8047 43.6445C18.3281 44.5039 18.5898 45.4844 18.5898 46.5859C18.5898 48.2578 18.0156 49.5781 16.8672 50.5469C15.7266 51.5078 14.1445 51.9883 12.1211 51.9883H9.03906ZM9.03906 49.1406H12.1797C13.1094 49.1406 13.8164 48.9219 14.3008 48.4844C14.793 48.0469 15.0391 47.4219 15.0391 46.6094C15.0391 45.7734 14.793 45.0977 14.3008 44.582C13.8086 44.0664 13.1289 43.8008 12.2617 43.7852H9.03906V49.1406ZM34.9023 58H31.3867V50.6875H24.5312V58H21.0156V40.9375H24.5312V47.8516H31.3867V40.9375H34.9023V58ZM52 49.8555C52 51.5352 51.7031 53.0078 51.1094 54.2734C50.5156 55.5391 49.6641 56.5156 48.5547 57.2031C47.4531 57.8906 46.1875 58.2344 44.7578 58.2344C43.3438 58.2344 42.082 57.8945 40.9727 57.2148C39.8633 56.5352 39.0039 55.5664 38.3945 54.3086C37.7852 53.043 37.4766 51.5898 37.4688 49.9492V49.1055C37.4688 47.4258 37.7695 45.9492 38.3711 44.6758C38.9805 43.3945 39.8359 42.4141 40.9375 41.7344C42.0469 41.0469 43.3125 40.7031 44.7344 40.7031C46.1562 40.7031 47.418 41.0469 48.5195 41.7344C49.6289 42.4141 50.4844 43.3945 51.0859 44.6758C51.6953 45.9492 52 47.4219 52 49.0938V49.8555ZM48.4375 49.082C48.4375 47.293 48.1172 45.9336 47.4766 45.0039C46.8359 44.0742 45.9219 43.6094 44.7344 43.6094C43.5547 43.6094 42.6445 44.0703 42.0039 44.9922C41.3633 45.9062 41.0391 47.25 41.0312 49.0234V49.8555C41.0312 51.5977 41.3516 52.9492 41.9922 53.9102C42.6328 54.8711 43.5547 55.3516 44.7578 55.3516C45.9375 55.3516 46.8438 54.8906 47.4766 53.9688C48.1094 53.0391 48.4297 51.6875 48.4375 49.9141V49.082ZM66.3906 43.7852H61.1641V58H57.6484V43.7852H52.4922V40.9375H66.3906V43.7852ZM82.0938 49.8555C82.0938 51.5352 81.7969 53.0078 81.2031 54.2734C80.6094 55.5391 79.7578 56.5156 78.6484 57.2031C77.5469 57.8906 76.2812 58.2344 74.8516 58.2344C73.4375 58.2344 72.1758 57.8945 71.0664 57.2148C69.957 56.5352 69.0977 55.5664 68.4883 54.3086C67.8789 53.043 67.5703 51.5898 67.5625 49.9492V49.1055C67.5625 47.4258 67.8633 45.9492 68.4648 44.6758C69.0742 43.3945 69.9297 42.4141 71.0312 41.7344C72.1406 41.0469 73.4062 40.7031 74.8281 40.7031C76.25 40.7031 77.5117 41.0469 78.6133 41.7344C79.7227 42.4141 80.5781 43.3945 81.1797 44.6758C81.7891 45.9492 82.0938 47.4219 82.0938 49.0938V49.8555ZM78.5312 49.082C78.5312 47.293 78.2109 45.9336 77.5703 45.0039C76.9297 44.0742 76.0156 43.6094 74.8281 43.6094C73.6484 43.6094 72.7383 44.0703 72.0977 44.9922C71.457 45.9062 71.1328 47.25 71.125 49.0234V49.8555C71.125 51.5977 71.4453 52.9492 72.0859 53.9102C72.7266 54.8711 73.6484 55.3516 74.8516 55.3516C76.0312 55.3516 76.9375 54.8906 77.5703 53.9688C78.2031 53.0391 78.5234 51.6875 78.5312 49.9141V49.082ZM93.4961 53.5234C93.4961 52.8594 93.2617 52.3516 92.793 52C92.3242 51.6406 91.4805 51.2656 90.2617 50.875C89.043 50.4766 88.0781 50.0859 87.3672 49.7031C85.4297 48.6562 84.4609 47.2461 84.4609 45.4727C84.4609 44.5508 84.7188 43.7305 85.2344 43.0117C85.7578 42.2852 86.5039 41.7188 87.4727 41.3125C88.4492 40.9062 89.543 40.7031 90.7539 40.7031C91.9727 40.7031 93.0586 40.9258 94.0117 41.3711C94.9648 41.8086 95.7031 42.4297 96.2266 43.2344C96.7578 44.0391 97.0234 44.9531 97.0234 45.9766H93.5078C93.5078 45.1953 93.2617 44.5898 92.7695 44.1602C92.2773 43.7227 91.5859 43.5039 90.6953 43.5039C89.8359 43.5039 89.168 43.6875 88.6914 44.0547C88.2148 44.4141 87.9766 44.8906 87.9766 45.4844C87.9766 46.0391 88.2539 46.5039 88.8086 46.8789C89.3711 47.2539 90.1953 47.6055 91.2812 47.9336C93.2812 48.5352 94.7383 49.2812 95.6523 50.1719C96.5664 51.0625 97.0234 52.1719 97.0234 53.5C97.0234 54.9766 96.4648 56.1367 95.3477 56.9805C94.2305 57.8164 92.7266 58.2344 90.8359 58.2344C89.5234 58.2344 88.3281 57.9961 87.25 57.5195C86.1719 57.0352 85.3477 56.375 84.7773 55.5391C84.2148 54.7031 83.9336 53.7344 83.9336 52.6328H87.4609C87.4609 54.5156 88.5859 55.457 90.8359 55.457C91.6719 55.457 92.3242 55.2891 92.793 54.9531C93.2617 54.6094 93.4961 54.1328 93.4961 53.5234ZM113.301 58H109.785V50.6875H102.93V58H99.4141V40.9375H102.93V47.8516H109.785V40.9375H113.301V58ZM130.398 49.8555C130.398 51.5352 130.102 53.0078 129.508 54.2734C128.914 55.5391 128.062 56.5156 126.953 57.2031C125.852 57.8906 124.586 58.2344 123.156 58.2344C121.742 58.2344 120.48 57.8945 119.371 57.2148C118.262 56.5352 117.402 55.5664 116.793 54.3086C116.184 53.043 115.875 51.5898 115.867 49.9492V49.1055C115.867 47.4258 116.168 45.9492 116.77 44.6758C117.379 43.3945 118.234 42.4141 119.336 41.7344C120.445 41.0469 121.711 40.7031 123.133 40.7031C124.555 40.7031 125.816 41.0469 126.918 41.7344C128.027 42.4141 128.883 43.3945 129.484 44.6758C130.094 45.9492 130.398 47.4219 130.398 49.0938V49.8555ZM126.836 49.082C126.836 47.293 126.516 45.9336 125.875 45.0039C125.234 44.0742 124.32 43.6094 123.133 43.6094C121.953 43.6094 121.043 44.0703 120.402 44.9922C119.762 45.9062 119.438 47.25 119.43 49.0234V49.8555C119.43 51.5977 119.75 52.9492 120.391 53.9102C121.031 54.8711 121.953 55.3516 123.156 55.3516C124.336 55.3516 125.242 54.8906 125.875 53.9688C126.508 53.0391 126.828 51.6875 126.836 49.9141V49.082ZM136.469 51.9883V58H132.953V40.9375H139.609C140.891 40.9375 142.016 41.1719 142.984 41.6406C143.961 42.1094 144.711 42.7773 145.234 43.6445C145.758 44.5039 146.02 45.4844 146.02 46.5859C146.02 48.2578 145.445 49.5781 144.297 50.5469C143.156 51.5078 141.574 51.9883 139.551 51.9883H136.469ZM136.469 49.1406H139.609C140.539 49.1406 141.246 48.9219 141.73 48.4844C142.223 48.0469 142.469 47.4219 142.469 46.6094C142.469 45.7734 142.223 45.0977 141.73 44.582C141.238 44.0664 140.559 43.8008 139.691 43.7852H136.469V49.1406Z" fill="white"/>
</svg>
