<svg width="150" height="100" viewBox="0 0 150 100" fill="none" xmlns="http://www.w3.org/2000/svg">
<rect width="150" height="100" rx="20" fill="#DAD8D8"/>
<path d="M21.2988 53.4854V61H16.9043V39.6719H25.2246C26.8262 39.6719 28.2324 39.9648 29.4434 40.5508C30.6641 41.1367 31.6016 41.9717 32.2559 43.0557C32.9102 44.1299 33.2373 45.3555 33.2373 46.7324C33.2373 48.8223 32.5195 50.4727 31.084 51.6836C29.6582 52.8848 27.6807 53.4854 25.1514 53.4854H21.2988ZM21.2988 49.9258H25.2246C26.3867 49.9258 27.2705 49.6523 27.876 49.1055C28.4912 48.5586 28.7988 47.7773 28.7988 46.7617C28.7988 45.7168 28.4912 44.8721 27.876 44.2275C27.2607 43.583 26.4111 43.251 25.3271 43.2314H21.2988V49.9258ZM43.623 49.2812L48.0615 39.6719H52.8662L45.8643 53.2656V61H41.3965V53.2656L34.3945 39.6719H39.2139L43.623 49.2812ZM71.1328 43.2314H64.5996V61H60.2051V43.2314H53.7598V39.6719H71.1328V43.2314ZM91.0107 61H86.6162V51.8594H78.0469V61H73.6523V39.6719H78.0469V48.3145H86.6162V39.6719H91.0107V61ZM112.383 50.8193C112.383 52.9189 112.012 54.7598 111.27 56.3418C110.527 57.9238 109.463 59.1445 108.076 60.0039C106.699 60.8633 105.117 61.293 103.33 61.293C101.562 61.293 99.9854 60.8682 98.5986 60.0186C97.2119 59.1689 96.1377 57.958 95.376 56.3857C94.6143 54.8037 94.2285 52.9873 94.2188 50.9365V49.8818C94.2188 47.7822 94.5947 45.9365 95.3467 44.3447C96.1084 42.7432 97.1777 41.5176 98.5547 40.668C99.9414 39.8086 101.523 39.3789 103.301 39.3789C105.078 39.3789 106.655 39.8086 108.032 40.668C109.419 41.5176 110.488 42.7432 111.24 44.3447C112.002 45.9365 112.383 47.7773 112.383 49.8672V50.8193ZM107.93 49.8525C107.93 47.6162 107.529 45.917 106.729 44.7549C105.928 43.5928 104.785 43.0117 103.301 43.0117C101.826 43.0117 100.688 43.5879 99.8877 44.7402C99.0869 45.8828 98.6816 47.5625 98.6719 49.7793V50.8193C98.6719 52.9971 99.0723 54.6865 99.873 55.8877C100.674 57.0889 101.826 57.6895 103.33 57.6895C104.805 57.6895 105.938 57.1133 106.729 55.9609C107.52 54.7988 107.92 53.1094 107.93 50.8926V49.8525ZM132.92 61H128.525L119.971 46.9668V61H115.576V39.6719H119.971L128.54 53.7344V39.6719H132.92V61Z" fill="white"/>
</svg>
