<svg width="150" height="100" viewBox="0 0 150 100" fill="none" xmlns="http://www.w3.org/2000/svg">
<rect width="150" height="100" rx="20" fill="#DAD8D8"/>
<path d="M26.0664 53.5898H21.3984V64H15.5391V35.5625H26.1055C29.4648 35.5625 32.056 36.3112 33.8789 37.8086C35.7018 39.306 36.6133 41.4219 36.6133 44.1562C36.6133 46.0964 36.1901 47.7174 35.3438 49.0195C34.5104 50.3086 33.2409 51.3372 31.5352 52.1055L37.6875 63.7266V64H31.3984L26.0664 53.5898ZM21.3984 48.8438H26.125C27.5964 48.8438 28.7357 48.4727 29.543 47.7305C30.3503 46.9753 30.7539 45.9401 30.7539 44.625C30.7539 43.2839 30.3698 42.2292 29.6016 41.4609C28.8464 40.6927 27.681 40.3086 26.1055 40.3086H21.3984V48.8438ZM58.1953 51.6758H46.9453V59.293H60.1484V64H41.0859V35.5625H60.1094V40.3086H46.9453V47.0859H58.1953V51.6758ZM79.6406 58.1406H69.3672L67.4141 64H61.1836L71.7695 35.5625H77.1992L87.8438 64H81.6133L79.6406 58.1406ZM70.9492 53.3945H78.0586L74.4844 42.75L70.9492 53.3945ZM112.395 54.5273C112.173 57.5872 111.04 59.9961 108.996 61.7539C106.965 63.5117 104.283 64.3906 100.949 64.3906C97.3034 64.3906 94.4323 63.1667 92.3359 60.7188C90.2526 58.2578 89.2109 54.8854 89.2109 50.6016V48.8633C89.2109 46.1289 89.6927 43.7201 90.6562 41.6367C91.6198 39.5534 92.9935 37.9583 94.7773 36.8516C96.5742 35.7318 98.6576 35.1719 101.027 35.1719C104.309 35.1719 106.952 36.0508 108.957 37.8086C110.962 39.5664 112.121 42.0339 112.434 45.2109H106.574C106.431 43.375 105.917 42.0469 105.031 41.2266C104.159 40.3932 102.824 39.9766 101.027 39.9766C99.0742 39.9766 97.6094 40.6797 96.6328 42.0859C95.6693 43.4792 95.1745 45.6471 95.1484 48.5898V50.7383C95.1484 53.8112 95.6107 56.0573 96.5352 57.4766C97.4727 58.8958 98.944 59.6055 100.949 59.6055C102.759 59.6055 104.107 59.1953 104.992 58.375C105.891 57.5417 106.405 56.2591 106.535 54.5273H112.395ZM137.062 40.3086H128.352V64H122.492V40.3086H113.898V35.5625H137.062V40.3086Z" fill="white"/>
</svg>
