<svg width="150" height="100" viewBox="0 0 150 100" fill="none" xmlns="http://www.w3.org/2000/svg">
<rect width="150" height="100" rx="20" fill="#DAD8D8"/>
<path d="M35.7422 57.0469C35.7422 55.7188 35.2734 54.7031 34.3359 54C33.3984 53.2812 31.7109 52.5312 29.2734 51.75C26.8359 50.9531 24.9062 50.1719 23.4844 49.4062C19.6094 47.3125 17.6719 44.4922 17.6719 40.9453C17.6719 39.1016 18.1875 37.4609 19.2188 36.0234C20.2656 34.5703 21.7578 33.4375 23.6953 32.625C25.6484 31.8125 27.8359 31.4062 30.2578 31.4062C32.6953 31.4062 34.8672 31.8516 36.7734 32.7422C38.6797 33.6172 40.1562 34.8594 41.2031 36.4688C42.2656 38.0781 42.7969 39.9062 42.7969 41.9531H35.7656C35.7656 40.3906 35.2734 39.1797 34.2891 38.3203C33.3047 37.4453 31.9219 37.0078 30.1406 37.0078C28.4219 37.0078 27.0859 37.375 26.1328 38.1094C25.1797 38.8281 24.7031 39.7812 24.7031 40.9688C24.7031 42.0781 25.2578 43.0078 26.3672 43.7578C27.4922 44.5078 29.1406 45.2109 31.3125 45.8672C35.3125 47.0703 38.2266 48.5625 40.0547 50.3438C41.8828 52.125 42.7969 54.3438 42.7969 57C42.7969 59.9531 41.6797 62.2734 39.4453 63.9609C37.2109 65.6328 34.2031 66.4688 30.4219 66.4688C27.7969 66.4688 25.4062 65.9922 23.25 65.0391C21.0938 64.0703 19.4453 62.75 18.3047 61.0781C17.1797 59.4062 16.6172 57.4688 16.6172 55.2656H23.6719C23.6719 59.0312 25.9219 60.9141 30.4219 60.9141C32.0938 60.9141 33.3984 60.5781 34.3359 59.9062C35.2734 59.2188 35.7422 58.2656 35.7422 57.0469ZM66.8438 58.9688H54.5156L52.1719 66H44.6953L57.3984 31.875H63.9141L76.6875 66H69.2109L66.8438 58.9688ZM56.4141 53.2734H64.9453L60.6562 40.5L56.4141 53.2734ZM97.5703 57.0469C97.5703 55.7188 97.1016 54.7031 96.1641 54C95.2266 53.2812 93.5391 52.5312 91.1016 51.75C88.6641 50.9531 86.7344 50.1719 85.3125 49.4062C81.4375 47.3125 79.5 44.4922 79.5 40.9453C79.5 39.1016 80.0156 37.4609 81.0469 36.0234C82.0938 34.5703 83.5859 33.4375 85.5234 32.625C87.4766 31.8125 89.6641 31.4062 92.0859 31.4062C94.5234 31.4062 96.6953 31.8516 98.6016 32.7422C100.508 33.6172 101.984 34.8594 103.031 36.4688C104.094 38.0781 104.625 39.9062 104.625 41.9531H97.5938C97.5938 40.3906 97.1016 39.1797 96.1172 38.3203C95.1328 37.4453 93.75 37.0078 91.9688 37.0078C90.25 37.0078 88.9141 37.375 87.9609 38.1094C87.0078 38.8281 86.5312 39.7812 86.5312 40.9688C86.5312 42.0781 87.0859 43.0078 88.1953 43.7578C89.3203 44.5078 90.9688 45.2109 93.1406 45.8672C97.1406 47.0703 100.055 48.5625 101.883 50.3438C103.711 52.125 104.625 54.3438 104.625 57C104.625 59.9531 103.508 62.2734 101.273 63.9609C99.0391 65.6328 96.0312 66.4688 92.25 66.4688C89.625 66.4688 87.2344 65.9922 85.0781 65.0391C82.9219 64.0703 81.2734 62.75 80.1328 61.0781C79.0078 59.4062 78.4453 57.4688 78.4453 55.2656H85.5C85.5 59.0312 87.75 60.9141 92.25 60.9141C93.9219 60.9141 95.2266 60.5781 96.1641 59.9062C97.1016 59.2188 97.5703 58.2656 97.5703 57.0469ZM127.102 57.0469C127.102 55.7188 126.633 54.7031 125.695 54C124.758 53.2812 123.07 52.5312 120.633 51.75C118.195 50.9531 116.266 50.1719 114.844 49.4062C110.969 47.3125 109.031 44.4922 109.031 40.9453C109.031 39.1016 109.547 37.4609 110.578 36.0234C111.625 34.5703 113.117 33.4375 115.055 32.625C117.008 31.8125 119.195 31.4062 121.617 31.4062C124.055 31.4062 126.227 31.8516 128.133 32.7422C130.039 33.6172 131.516 34.8594 132.562 36.4688C133.625 38.0781 134.156 39.9062 134.156 41.9531H127.125C127.125 40.3906 126.633 39.1797 125.648 38.3203C124.664 37.4453 123.281 37.0078 121.5 37.0078C119.781 37.0078 118.445 37.375 117.492 38.1094C116.539 38.8281 116.062 39.7812 116.062 40.9688C116.062 42.0781 116.617 43.0078 117.727 43.7578C118.852 44.5078 120.5 45.2109 122.672 45.8672C126.672 47.0703 129.586 48.5625 131.414 50.3438C133.242 52.125 134.156 54.3438 134.156 57C134.156 59.9531 133.039 62.2734 130.805 63.9609C128.57 65.6328 125.562 66.4688 121.781 66.4688C119.156 66.4688 116.766 65.9922 114.609 65.0391C112.453 64.0703 110.805 62.75 109.664 61.0781C108.539 59.4062 107.977 57.4688 107.977 55.2656H115.031C115.031 59.0312 117.281 60.9141 121.781 60.9141C123.453 60.9141 124.758 60.5781 125.695 59.9062C126.633 59.2188 127.102 58.2656 127.102 57.0469Z" fill="white"/>
</svg>
