<svg width="150" height="100" viewBox="0 0 150 100" fill="none" xmlns="http://www.w3.org/2000/svg">
<rect width="150" height="100" rx="20" fill="#DAD8D8"/>
<path d="M42.6562 60.0625C42.6562 58.2917 42.0312 56.9375 40.7812 56C39.5312 55.0417 37.2812 54.0417 34.0312 53C30.7812 51.9375 28.2083 50.8958 26.3125 49.875C21.1458 47.0833 18.5625 43.3229 18.5625 38.5938C18.5625 36.1354 19.25 33.9479 20.625 32.0312C22.0208 30.0938 24.0104 28.5833 26.5938 27.5C29.1979 26.4167 32.1146 25.875 35.3438 25.875C38.5938 25.875 41.4896 26.4688 44.0312 27.6562C46.5729 28.8229 48.5417 30.4792 49.9375 32.625C51.3542 34.7708 52.0625 37.2083 52.0625 39.9375H42.6875C42.6875 37.8542 42.0312 36.2396 40.7188 35.0938C39.4062 33.9271 37.5625 33.3438 35.1875 33.3438C32.8958 33.3438 31.1146 33.8333 29.8438 34.8125C28.5729 35.7708 27.9375 37.0417 27.9375 38.625C27.9375 40.1042 28.6771 41.3438 30.1562 42.3438C31.6562 43.3438 33.8542 44.2812 36.75 45.1562C42.0833 46.7604 45.9688 48.75 48.4062 51.125C50.8438 53.5 52.0625 56.4583 52.0625 60C52.0625 63.9375 50.5729 67.0312 47.5938 69.2812C44.6146 71.5104 40.6042 72.625 35.5625 72.625C32.0625 72.625 28.875 71.9896 26 70.7188C23.125 69.4271 20.9271 67.6667 19.4062 65.4375C17.9062 63.2083 17.1562 60.625 17.1562 57.6875H26.5625C26.5625 62.7083 29.5625 65.2188 35.5625 65.2188C37.7917 65.2188 39.5312 64.7708 40.7812 63.875C42.0312 62.9583 42.6562 61.6875 42.6562 60.0625ZM85.8125 52.2812H67.8125V64.4688H88.9375V72H58.4375V26.5H88.875V34.0938H67.8125V44.9375H85.8125V52.2812ZM120.125 62.625H103.688L100.562 72H90.5938L107.531 26.5H116.219L133.25 72H123.281L120.125 62.625ZM106.219 55.0312H117.594L111.875 38L106.219 55.0312Z" fill="white"/>
</svg>
