<svg width="150" height="100" viewBox="0 0 150 100" fill="none" xmlns="http://www.w3.org/2000/svg">
<rect width="150" height="100" rx="20" fill="#DAD8D8"/>
<path d="M42.6562 60.0625C42.6562 58.2917 42.0312 56.9375 40.7812 56C39.5312 55.0417 37.2812 54.0417 34.0312 53C30.7812 51.9375 28.2083 50.8958 26.3125 49.875C21.1458 47.0833 18.5625 43.3229 18.5625 38.5938C18.5625 36.1354 19.25 33.9479 20.625 32.0312C22.0208 30.0938 24.0104 28.5833 26.5938 27.5C29.1979 26.4167 32.1146 25.875 35.3438 25.875C38.5938 25.875 41.4896 26.4688 44.0312 27.6562C46.5729 28.8229 48.5417 30.4792 49.9375 32.625C51.3542 34.7708 52.0625 37.2083 52.0625 39.9375H42.6875C42.6875 37.8542 42.0312 36.2396 40.7188 35.0938C39.4062 33.9271 37.5625 33.3438 35.1875 33.3438C32.8958 33.3438 31.1146 33.8333 29.8438 34.8125C28.5729 35.7708 27.9375 37.0417 27.9375 38.625C27.9375 40.1042 28.6771 41.3438 30.1562 42.3438C31.6562 43.3438 33.8542 44.2812 36.75 45.1562C42.0833 46.7604 45.9688 48.75 48.4062 51.125C50.8438 53.5 52.0625 56.4583 52.0625 60C52.0625 63.9375 50.5729 67.0312 47.5938 69.2812C44.6146 71.5104 40.6042 72.625 35.5625 72.625C32.0625 72.625 28.875 71.9896 26 70.7188C23.125 69.4271 20.9271 67.6667 19.4062 65.4375C17.9062 63.2083 17.1562 60.625 17.1562 57.6875H26.5625C26.5625 62.7083 29.5625 65.2188 35.5625 65.2188C37.7917 65.2188 39.5312 64.7708 40.7812 63.875C42.0312 62.9583 42.6562 61.6875 42.6562 60.0625ZM85.8125 52.2812H67.8125V64.4688H88.9375V72H58.4375V26.5H88.875V34.0938H67.8125V44.9375H85.8125V52.2812ZM131.812 50.2812C131.812 54.7604 131.021 58.6875 129.438 62.0625C127.854 65.4375 125.583 68.0417 122.625 69.875C119.688 71.7083 116.312 72.625 112.5 72.625C108.729 72.625 105.365 71.7188 102.406 69.9062C99.4479 68.0938 97.1562 65.5104 95.5312 62.1562C93.9062 58.7812 93.0833 54.9062 93.0625 50.5312V48.2812C93.0625 43.8021 93.8646 39.8646 95.4688 36.4688C97.0938 33.0521 99.375 30.4375 102.312 28.625C105.271 26.7917 108.646 25.875 112.438 25.875C116.229 25.875 119.594 26.7917 122.531 28.625C125.49 30.4375 127.771 33.0521 129.375 36.4688C131 39.8646 131.812 43.7917 131.812 48.25V50.2812ZM122.312 48.2188C122.312 43.4479 121.458 39.8229 119.75 37.3438C118.042 34.8646 115.604 33.625 112.438 33.625C109.292 33.625 106.865 34.8542 105.156 37.3125C103.448 39.75 102.583 43.3333 102.562 48.0625V50.2812C102.562 54.9271 103.417 58.5312 105.125 61.0938C106.833 63.6562 109.292 64.9375 112.5 64.9375C115.646 64.9375 118.062 63.7083 119.75 61.25C121.438 58.7708 122.292 55.1667 122.312 50.4375V48.2188Z" fill="white"/>
</svg>
