<svg width="150" height="100" viewBox="0 0 150 100" fill="none" xmlns="http://www.w3.org/2000/svg">
<rect width="150" height="100" rx="20" fill="#DAD8D8"/>
<path d="M21.7783 42.6426C21.7783 42.1445 21.6025 41.7637 21.251 41.5C20.8994 41.2305 20.2666 40.9492 19.3525 40.6562C18.4385 40.3574 17.7148 40.0645 17.1816 39.7773C15.7285 38.9922 15.002 37.9346 15.002 36.6045C15.002 35.9131 15.1953 35.2979 15.582 34.7588C15.9746 34.2139 16.5342 33.7891 17.2607 33.4844C17.9932 33.1797 18.8135 33.0273 19.7217 33.0273C20.6357 33.0273 21.4502 33.1943 22.165 33.5283C22.8799 33.8564 23.4336 34.3223 23.8262 34.9258C24.2246 35.5293 24.4238 36.2148 24.4238 36.9824H21.7871C21.7871 36.3965 21.6025 35.9424 21.2334 35.6201C20.8643 35.292 20.3457 35.1279 19.6777 35.1279C19.0332 35.1279 18.5322 35.2656 18.1748 35.541C17.8174 35.8105 17.6387 36.168 17.6387 36.6133C17.6387 37.0293 17.8467 37.3779 18.2627 37.6592C18.6846 37.9404 19.3027 38.2041 20.1172 38.4502C21.6172 38.9014 22.71 39.4609 23.3955 40.1289C24.0811 40.7969 24.4238 41.6289 24.4238 42.625C24.4238 43.7324 24.0049 44.6025 23.167 45.2354C22.3291 45.8623 21.2012 46.1758 19.7832 46.1758C18.7988 46.1758 17.9023 45.9971 17.0938 45.6396C16.2852 45.2764 15.667 44.7812 15.2393 44.1543C14.8174 43.5273 14.6064 42.8008 14.6064 41.9746H17.252C17.252 43.3867 18.0957 44.0928 19.7832 44.0928C20.4102 44.0928 20.8994 43.9668 21.251 43.7148C21.6025 43.457 21.7783 43.0996 21.7783 42.6426ZM35.8496 35.3389H31.9297V46H29.293V35.3389H25.4258V33.2031H35.8496V35.3389ZM41.9141 38.9688L44.5771 33.2031H47.46L43.2588 41.3594V46H40.5781V41.3594L36.377 33.2031H39.2686L41.9141 38.9688ZM51.2656 43.8818H56.8643V46H48.6289V33.2031H51.2656V43.8818ZM66.084 40.4541H61.0215V43.8818H66.9629V46H58.3848V33.2031H66.9453V35.3389H61.0215V38.3887H66.084V40.4541ZM68.5098 46V33.2031H72.4473C73.5723 33.2031 74.5771 33.458 75.4619 33.9678C76.3525 34.4717 77.0469 35.1924 77.5449 36.1299C78.043 37.0615 78.292 38.1221 78.292 39.3115V39.9004C78.292 41.0898 78.0459 42.1475 77.5537 43.0732C77.0674 43.999 76.3789 44.7168 75.4883 45.2266C74.5977 45.7363 73.5928 45.9941 72.4736 46H68.5098ZM71.1465 35.3389V43.8818H72.4209C73.4521 43.8818 74.2402 43.5449 74.7852 42.8711C75.3301 42.1973 75.6084 41.2334 75.6201 39.9795V39.3027C75.6201 38.002 75.3506 37.0176 74.8115 36.3496C74.2725 35.6758 73.4844 35.3389 72.4473 35.3389H71.1465ZM25.1885 62.7373C25.0889 64.1143 24.5791 65.1982 23.6592 65.9893C22.7451 66.7803 21.5381 67.1758 20.0381 67.1758C18.3975 67.1758 17.1055 66.625 16.1621 65.5234C15.2246 64.416 14.7559 62.8984 14.7559 60.9707V60.1885C14.7559 58.958 14.9727 57.874 15.4062 56.9365C15.8398 55.999 16.458 55.2812 17.2607 54.7832C18.0693 54.2793 19.0068 54.0273 20.0732 54.0273C21.5498 54.0273 22.7393 54.4229 23.6416 55.2139C24.5439 56.0049 25.0654 57.1152 25.2061 58.5449H22.5693C22.5049 57.7188 22.2734 57.1211 21.875 56.752C21.4824 56.377 20.8818 56.1895 20.0732 56.1895C19.1943 56.1895 18.5352 56.5059 18.0957 57.1387C17.6621 57.7656 17.4395 58.7412 17.4277 60.0654V61.0322C17.4277 62.415 17.6357 63.4258 18.0518 64.0645C18.4736 64.7031 19.1357 65.0225 20.0381 65.0225C20.8525 65.0225 21.459 64.8379 21.8574 64.4688C22.2617 64.0938 22.4932 63.5166 22.5518 62.7373H25.1885ZM37.4316 60.8916C37.4316 62.1514 37.209 63.2559 36.7637 64.2051C36.3184 65.1543 35.6797 65.8867 34.8477 66.4023C34.0215 66.918 33.0723 67.1758 32 67.1758C30.9395 67.1758 29.9932 66.9209 29.1611 66.4111C28.3291 65.9014 27.6846 65.1748 27.2275 64.2314C26.7705 63.2822 26.5391 62.1924 26.5332 60.9619V60.3291C26.5332 59.0693 26.7588 57.9619 27.21 57.0068C27.667 56.0459 28.3086 55.3105 29.1348 54.8008C29.9668 54.2852 30.916 54.0273 31.9824 54.0273C33.0488 54.0273 33.9951 54.2852 34.8213 54.8008C35.6533 55.3105 36.2949 56.0459 36.7461 57.0068C37.2031 57.9619 37.4316 59.0664 37.4316 60.3203V60.8916ZM34.7598 60.3115C34.7598 58.9697 34.5195 57.9502 34.0391 57.2529C33.5586 56.5557 32.873 56.207 31.9824 56.207C31.0977 56.207 30.415 56.5527 29.9346 57.2441C29.4541 57.9297 29.2109 58.9375 29.2051 60.2676V60.8916C29.2051 62.1982 29.4453 63.2119 29.9258 63.9326C30.4062 64.6533 31.0977 65.0137 32 65.0137C32.8848 65.0137 33.5645 64.668 34.0391 63.9766C34.5137 63.2793 34.7539 62.2656 34.7598 60.9355V60.3115ZM42.793 54.2031L46.0801 63.4844L49.3496 54.2031H52.8125V67H50.167V63.502L50.4307 57.4639L46.9766 67H45.166L41.7207 57.4727L41.9844 63.502V67H39.3477V54.2031H42.793ZM57.752 62.4912V67H55.1152V54.2031H60.1074C61.0684 54.2031 61.9121 54.3789 62.6387 54.7305C63.3711 55.082 63.9336 55.583 64.3262 56.2334C64.7188 56.8779 64.915 57.6133 64.915 58.4395C64.915 59.6934 64.4844 60.6836 63.623 61.4102C62.7676 62.1309 61.5811 62.4912 60.0635 62.4912H57.752ZM57.752 60.3555H60.1074C60.8047 60.3555 61.335 60.1914 61.6982 59.8633C62.0674 59.5352 62.252 59.0664 62.252 58.457C62.252 57.8301 62.0674 57.3232 61.6982 56.9365C61.3291 56.5498 60.8193 56.3506 60.1689 56.3389H57.752V60.3555ZM77.2461 60.8916C77.2461 62.1514 77.0234 63.2559 76.5781 64.2051C76.1328 65.1543 75.4941 65.8867 74.6621 66.4023C73.8359 66.918 72.8867 67.1758 71.8145 67.1758C70.7539 67.1758 69.8076 66.9209 68.9756 66.4111C68.1436 65.9014 67.499 65.1748 67.042 64.2314C66.585 63.2822 66.3535 62.1924 66.3477 60.9619V60.3291C66.3477 59.0693 66.5732 57.9619 67.0244 57.0068C67.4814 56.0459 68.123 55.3105 68.9492 54.8008C69.7812 54.2852 70.7305 54.0273 71.7969 54.0273C72.8633 54.0273 73.8096 54.2852 74.6357 54.8008C75.4678 55.3105 76.1094 56.0459 76.5605 57.0068C77.0176 57.9619 77.2461 59.0664 77.2461 60.3203V60.8916ZM74.5742 60.3115C74.5742 58.9697 74.334 57.9502 73.8535 57.2529C73.373 56.5557 72.6875 56.207 71.7969 56.207C70.9121 56.207 70.2295 56.5527 69.749 57.2441C69.2686 57.9297 69.0254 58.9375 69.0195 60.2676V60.8916C69.0195 62.1982 69.2598 63.2119 69.7402 63.9326C70.2207 64.6533 70.9121 65.0137 71.8145 65.0137C72.6992 65.0137 73.3789 64.668 73.8535 63.9766C74.3281 63.2793 74.5684 62.2656 74.5742 60.9355V60.3115ZM89.5684 67H86.9316L81.7988 58.5801V67H79.1621V54.2031H81.7988L86.9404 62.6406V54.2031H89.5684V67ZM99.5703 61.4541H94.5078V64.8818H100.449V67H91.8711V54.2031H100.432V56.3389H94.5078V59.3887H99.5703V61.4541ZM112.402 67H109.766L104.633 58.5801V67H101.996V54.2031H104.633L109.774 62.6406V54.2031H112.402V67ZM124.074 56.3389H120.154V67H117.518V56.3389H113.65V54.2031H124.074V56.3389ZM132.081 63.6426C132.081 63.1445 131.905 62.7637 131.554 62.5C131.202 62.2305 130.569 61.9492 129.655 61.6562C128.741 61.3574 128.018 61.0645 127.484 60.7773C126.031 59.9922 125.305 58.9346 125.305 57.6045C125.305 56.9131 125.498 56.2979 125.885 55.7588C126.277 55.2139 126.837 54.7891 127.563 54.4844C128.296 54.1797 129.116 54.0273 130.024 54.0273C130.938 54.0273 131.753 54.1943 132.468 54.5283C133.183 54.8564 133.736 55.3223 134.129 55.9258C134.527 56.5293 134.727 57.2148 134.727 57.9824H132.09C132.09 57.3965 131.905 56.9424 131.536 56.6201C131.167 56.292 130.648 56.1279 129.98 56.1279C129.336 56.1279 128.835 56.2656 128.478 56.541C128.12 56.8105 127.941 57.168 127.941 57.6133C127.941 58.0293 128.149 58.3779 128.565 58.6592C128.987 58.9404 129.605 59.2041 130.42 59.4502C131.92 59.9014 133.013 60.4609 133.698 61.1289C134.384 61.7969 134.727 62.6289 134.727 63.625C134.727 64.7324 134.308 65.6025 133.47 66.2354C132.632 66.8623 131.504 67.1758 130.086 67.1758C129.102 67.1758 128.205 66.9971 127.396 66.6396C126.588 66.2764 125.97 65.7812 125.542 65.1543C125.12 64.5273 124.909 63.8008 124.909 62.9746H127.555C127.555 64.3867 128.398 65.0928 130.086 65.0928C130.713 65.0928 131.202 64.9668 131.554 64.7148C131.905 64.457 132.081 64.0996 132.081 63.6426Z" fill="white"/>
</svg>
