<svg width="150" height="100" viewBox="0 0 150 100" fill="none" xmlns="http://www.w3.org/2000/svg">
<rect width="150" height="100" rx="20" fill="#DAD8D8"/>
<path d="M23.1699 44.9697H18.3789V58H15.1562V44.9697H10.4297V42.3594H23.1699V44.9697ZM30.582 49.4062L33.8369 42.3594H37.3604L32.2256 52.3281V58H28.9492V52.3281L23.8145 42.3594H27.3486L30.582 49.4062ZM42.0117 52.4893V58H38.7891V42.3594H44.8906C46.0651 42.3594 47.0964 42.5742 47.9844 43.0039C48.8796 43.4336 49.5671 44.0459 50.0469 44.8408C50.5267 45.6286 50.7666 46.5273 50.7666 47.5371C50.7666 49.0697 50.2402 50.2799 49.1875 51.168C48.1419 52.0488 46.6917 52.4893 44.8369 52.4893H42.0117ZM42.0117 49.8789H44.8906C45.7428 49.8789 46.391 49.6784 46.835 49.2773C47.2861 48.8763 47.5117 48.3034 47.5117 47.5586C47.5117 46.7923 47.2861 46.1729 46.835 45.7002C46.3838 45.2275 45.7607 44.984 44.9658 44.9697H42.0117V49.8789ZM62.4004 51.2217H56.2129V55.4111H63.4746V58H52.9902V42.3594H63.4531V44.9697H56.2129V48.6973H62.4004V51.2217ZM73.4756 53.8965C73.4756 53.2878 73.2607 52.8223 72.8311 52.5C72.4014 52.1706 71.6279 51.8268 70.5107 51.4688C69.3936 51.1035 68.5091 50.7454 67.8574 50.3945C66.0814 49.4349 65.1934 48.1423 65.1934 46.5166C65.1934 45.6715 65.4297 44.9196 65.9023 44.2607C66.3822 43.5947 67.0661 43.0755 67.9541 42.7031C68.8493 42.3307 69.8519 42.1445 70.9619 42.1445C72.0791 42.1445 73.0745 42.3486 73.9482 42.7568C74.8219 43.1579 75.4987 43.7272 75.9785 44.4648C76.4655 45.2025 76.709 46.0404 76.709 46.9785H73.4863C73.4863 46.2624 73.2607 45.7074 72.8096 45.3135C72.3584 44.9124 71.7246 44.7119 70.9082 44.7119C70.1204 44.7119 69.5081 44.8802 69.0713 45.2168C68.6344 45.5462 68.416 45.9831 68.416 46.5273C68.416 47.0358 68.6702 47.4619 69.1787 47.8057C69.6943 48.1494 70.4499 48.4717 71.4453 48.7725C73.2786 49.3239 74.6143 50.0078 75.4521 50.8242C76.29 51.6406 76.709 52.6576 76.709 53.875C76.709 55.2285 76.1969 56.292 75.1729 57.0654C74.1488 57.8317 72.7702 58.2148 71.0371 58.2148C69.834 58.2148 68.7383 57.9964 67.75 57.5596C66.7617 57.1156 66.0062 56.5104 65.4834 55.7441C64.9678 54.9779 64.71 54.0898 64.71 53.0801H67.9434C67.9434 54.806 68.9746 55.6689 71.0371 55.6689C71.8034 55.6689 72.4014 55.515 72.8311 55.207C73.2607 54.8919 73.4756 54.4551 73.4756 53.8965ZM91.1787 52.79C91.057 54.473 90.4339 55.7979 89.3096 56.7646C88.1924 57.7314 86.7171 58.2148 84.8838 58.2148C82.8786 58.2148 81.2995 57.5417 80.1465 56.1953C79.0007 54.8418 78.4277 52.987 78.4277 50.6309V49.6748C78.4277 48.1709 78.6927 46.846 79.2227 45.7002C79.7526 44.5544 80.5081 43.6771 81.4893 43.0684C82.4775 42.4525 83.6234 42.1445 84.9268 42.1445C86.7314 42.1445 88.1852 42.6279 89.2881 43.5947C90.391 44.5615 91.0283 45.9186 91.2002 47.666H87.9775C87.8988 46.6562 87.6159 45.9258 87.1289 45.4746C86.6491 45.0163 85.915 44.7871 84.9268 44.7871C83.8525 44.7871 83.0469 45.1738 82.5098 45.9473C81.9798 46.7135 81.7077 47.9059 81.6934 49.5244V50.7061C81.6934 52.3962 81.9476 53.6315 82.4561 54.4121C82.9717 55.1927 83.7809 55.583 84.8838 55.583C85.8792 55.583 86.6204 55.3574 87.1074 54.9062C87.6016 54.4479 87.8844 53.7425 87.9561 52.79H91.1787ZM99.085 52.2744H96.5176V58H93.2949V42.3594H99.1064C100.954 42.3594 102.379 42.7712 103.382 43.5947C104.384 44.4183 104.886 45.582 104.886 47.0859C104.886 48.153 104.653 49.0446 104.188 49.7607C103.729 50.4697 103.031 51.0355 102.093 51.458L105.477 57.8496V58H102.018L99.085 52.2744ZM96.5176 49.6641H99.1172C99.9264 49.6641 100.553 49.46 100.997 49.0518C101.441 48.6364 101.663 48.0671 101.663 47.3438C101.663 46.6061 101.452 46.026 101.029 45.6035C100.614 45.181 99.973 44.9697 99.1064 44.9697H96.5176V49.6641ZM110.772 58H107.55V42.3594H110.772V58ZM116.992 52.4893V58H113.77V42.3594H119.871C121.046 42.3594 122.077 42.5742 122.965 43.0039C123.86 43.4336 124.548 44.0459 125.027 44.8408C125.507 45.6286 125.747 46.5273 125.747 47.5371C125.747 49.0697 125.221 50.2799 124.168 51.168C123.122 52.0488 121.672 52.4893 119.817 52.4893H116.992ZM116.992 49.8789H119.871C120.723 49.8789 121.371 49.6784 121.815 49.2773C122.267 48.8763 122.492 48.3034 122.492 47.5586C122.492 46.7923 122.267 46.1729 121.815 45.7002C121.364 45.2275 120.741 44.984 119.946 44.9697H116.992V49.8789ZM139.744 44.9697H134.953V58H131.73V44.9697H127.004V42.3594H139.744V44.9697Z" fill="white"/>
</svg>
