<svg width="150" height="100" viewBox="0 0 150 100" fill="none" xmlns="http://www.w3.org/2000/svg">
<rect width="150" height="100" rx="20" fill="#DAD8D8"/>
<path d="M18.8125 53.0781L21.1094 40.9375H24.6133L20.8281 58H17.2891L14.5117 46.5859L11.7344 58H8.19531L4.41016 40.9375H7.91406L10.2227 53.0547L13.0352 40.9375H16.0117L18.8125 53.0781ZM40.5391 49.8555C40.5391 51.5352 40.2422 53.0078 39.6484 54.2734C39.0547 55.5391 38.2031 56.5156 37.0938 57.2031C35.9922 57.8906 34.7266 58.2344 33.2969 58.2344C31.8828 58.2344 30.6211 57.8945 29.5117 57.2148C28.4023 56.5352 27.543 55.5664 26.9336 54.3086C26.3242 53.043 26.0156 51.5898 26.0078 49.9492V49.1055C26.0078 47.4258 26.3086 45.9492 26.9102 44.6758C27.5195 43.3945 28.375 42.4141 29.4766 41.7344C30.5859 41.0469 31.8516 40.7031 33.2734 40.7031C34.6953 40.7031 35.957 41.0469 37.0586 41.7344C38.168 42.4141 39.0234 43.3945 39.625 44.6758C40.2344 45.9492 40.5391 47.4219 40.5391 49.0938V49.8555ZM36.9766 49.082C36.9766 47.293 36.6562 45.9336 36.0156 45.0039C35.375 44.0742 34.4609 43.6094 33.2734 43.6094C32.0938 43.6094 31.1836 44.0703 30.543 44.9922C29.9023 45.9062 29.5781 47.25 29.5703 49.0234V49.8555C29.5703 51.5977 29.8906 52.9492 30.5312 53.9102C31.1719 54.8711 32.0938 55.3516 33.2969 55.3516C34.4766 55.3516 35.3828 54.8906 36.0156 53.9688C36.6484 53.0391 36.9688 51.6875 36.9766 49.9141V49.082ZM49.4102 51.7539H46.6094V58H43.0938V40.9375H49.4336C51.4492 40.9375 53.0039 41.3867 54.0977 42.2852C55.1914 43.1836 55.7383 44.4531 55.7383 46.0938C55.7383 47.2578 55.4844 48.2305 54.9766 49.0117C54.4766 49.7852 53.7148 50.4023 52.6914 50.8633L56.3828 57.8359V58H52.6094L49.4102 51.7539ZM46.6094 48.9062H49.4453C50.3281 48.9062 51.0117 48.6836 51.4961 48.2383C51.9805 47.7852 52.2227 47.1641 52.2227 46.375C52.2227 45.5703 51.9922 44.9375 51.5312 44.4766C51.0781 44.0156 50.3789 43.7852 49.4336 43.7852H46.6094V48.9062ZM58.4219 58V40.9375H63.6719C65.1719 40.9375 66.5117 41.2773 67.6914 41.957C68.8789 42.6289 69.8047 43.5898 70.4688 44.8398C71.1328 46.082 71.4648 47.4961 71.4648 49.082V49.8672C71.4648 51.4531 71.1367 52.8633 70.4805 54.0977C69.832 55.332 68.9141 56.2891 67.7266 56.9688C66.5391 57.6484 65.1992 57.9922 63.707 58H58.4219ZM61.9375 43.7852V55.1758H63.6367C65.0117 55.1758 66.0625 54.7266 66.7891 53.8281C67.5156 52.9297 67.8867 51.6445 67.9023 49.9727V49.0703C67.9023 47.3359 67.543 46.0234 66.8242 45.1328C66.1055 44.2344 65.0547 43.7852 63.6719 43.7852H61.9375ZM77.5469 51.9883V58H74.0312V40.9375H80.6875C81.9688 40.9375 83.0938 41.1719 84.0625 41.6406C85.0391 42.1094 85.7891 42.7773 86.3125 43.6445C86.8359 44.5039 87.0977 45.4844 87.0977 46.5859C87.0977 48.2578 86.5234 49.5781 85.375 50.5469C84.2344 51.5078 82.6523 51.9883 80.6289 51.9883H77.5469ZM77.5469 49.1406H80.6875C81.6172 49.1406 82.3242 48.9219 82.8086 48.4844C83.3008 48.0469 83.5469 47.4219 83.5469 46.6094C83.5469 45.7734 83.3008 45.0977 82.8086 44.582C82.3164 44.0664 81.6367 43.8008 80.7695 43.7852H77.5469V49.1406ZM95.8398 51.7539H93.0391V58H89.5234V40.9375H95.8633C97.8789 40.9375 99.4336 41.3867 100.527 42.2852C101.621 43.1836 102.168 44.4531 102.168 46.0938C102.168 47.2578 101.914 48.2305 101.406 49.0117C100.906 49.7852 100.145 50.4023 99.1211 50.8633L102.812 57.8359V58H99.0391L95.8398 51.7539ZM93.0391 48.9062H95.875C96.7578 48.9062 97.4414 48.6836 97.9258 48.2383C98.4102 47.7852 98.6523 47.1641 98.6523 46.375C98.6523 45.5703 98.4219 44.9375 97.9609 44.4766C97.5078 44.0156 96.8086 43.7852 95.8633 43.7852H93.0391V48.9062ZM115.117 50.6055H108.367V55.1758H116.289V58H104.852V40.9375H116.266V43.7852H108.367V47.8516H115.117V50.6055ZM127.199 53.5234C127.199 52.8594 126.965 52.3516 126.496 52C126.027 51.6406 125.184 51.2656 123.965 50.875C122.746 50.4766 121.781 50.0859 121.07 49.7031C119.133 48.6562 118.164 47.2461 118.164 45.4727C118.164 44.5508 118.422 43.7305 118.938 43.0117C119.461 42.2852 120.207 41.7188 121.176 41.3125C122.152 40.9062 123.246 40.7031 124.457 40.7031C125.676 40.7031 126.762 40.9258 127.715 41.3711C128.668 41.8086 129.406 42.4297 129.93 43.2344C130.461 44.0391 130.727 44.9531 130.727 45.9766H127.211C127.211 45.1953 126.965 44.5898 126.473 44.1602C125.98 43.7227 125.289 43.5039 124.398 43.5039C123.539 43.5039 122.871 43.6875 122.395 44.0547C121.918 44.4141 121.68 44.8906 121.68 45.4844C121.68 46.0391 121.957 46.5039 122.512 46.8789C123.074 47.2539 123.898 47.6055 124.984 47.9336C126.984 48.5352 128.441 49.2812 129.355 50.1719C130.27 51.0625 130.727 52.1719 130.727 53.5C130.727 54.9766 130.168 56.1367 129.051 56.9805C127.934 57.8164 126.43 58.2344 124.539 58.2344C123.227 58.2344 122.031 57.9961 120.953 57.5195C119.875 57.0352 119.051 56.375 118.48 55.5391C117.918 54.7031 117.637 53.7344 117.637 52.6328H121.164C121.164 54.5156 122.289 55.457 124.539 55.457C125.375 55.457 126.027 55.2891 126.496 54.9531C126.965 54.6094 127.199 54.1328 127.199 53.5234ZM141.965 53.5234C141.965 52.8594 141.73 52.3516 141.262 52C140.793 51.6406 139.949 51.2656 138.73 50.875C137.512 50.4766 136.547 50.0859 135.836 49.7031C133.898 48.6562 132.93 47.2461 132.93 45.4727C132.93 44.5508 133.188 43.7305 133.703 43.0117C134.227 42.2852 134.973 41.7188 135.941 41.3125C136.918 40.9062 138.012 40.7031 139.223 40.7031C140.441 40.7031 141.527 40.9258 142.48 41.3711C143.434 41.8086 144.172 42.4297 144.695 43.2344C145.227 44.0391 145.492 44.9531 145.492 45.9766H141.977C141.977 45.1953 141.73 44.5898 141.238 44.1602C140.746 43.7227 140.055 43.5039 139.164 43.5039C138.305 43.5039 137.637 43.6875 137.16 44.0547C136.684 44.4141 136.445 44.8906 136.445 45.4844C136.445 46.0391 136.723 46.5039 137.277 46.8789C137.84 47.2539 138.664 47.6055 139.75 47.9336C141.75 48.5352 143.207 49.2812 144.121 50.1719C145.035 51.0625 145.492 52.1719 145.492 53.5C145.492 54.9766 144.934 56.1367 143.816 56.9805C142.699 57.8164 141.195 58.2344 139.305 58.2344C137.992 58.2344 136.797 57.9961 135.719 57.5195C134.641 57.0352 133.816 56.375 133.246 55.5391C132.684 54.7031 132.402 53.7344 132.402 52.6328H135.93C135.93 54.5156 137.055 55.457 139.305 55.457C140.141 55.457 140.793 55.2891 141.262 54.9531C141.73 54.6094 141.965 54.1328 141.965 53.5234Z" fill="white"/>
</svg>
